<mxfile host="app.diagrams.net" modified="2024-04-10T16:02:20.859Z" agent="Mozilla/5.0 (X11; Linux x86_64) AppleWebKit/537.36 (KHTML, like Gecko) Chrome/123.0.0.0 Safari/537.36 Edg/123.0.0.0" etag="txzgA2LbZdJTWASvOeKE" version="24.2.2" type="device">
  <diagram id="C5RBs43oDa-KdzZeNtuy" name="Page-1">
    <mxGraphModel dx="1386" dy="770" grid="0" gridSize="10" guides="1" tooltips="1" connect="1" arrows="1" fold="1" page="1" pageScale="1" pageWidth="827" pageHeight="1169" math="0" shadow="0">
      <root>
        <mxCell id="WIyWlLk6GJQsqaUBKTNV-0" />
        <mxCell id="WIyWlLk6GJQsqaUBKTNV-1" parent="WIyWlLk6GJQsqaUBKTNV-0" />
        <mxCell id="zkfFHV4jXpPFQw0GAbJ--0" value="Customer" style="swimlane;fontStyle=2;align=center;verticalAlign=top;childLayout=stackLayout;horizontal=1;startSize=26;horizontalStack=0;resizeParent=1;resizeLast=0;collapsible=1;marginBottom=0;rounded=0;shadow=0;strokeWidth=1;" parent="WIyWlLk6GJQsqaUBKTNV-1" vertex="1">
          <mxGeometry x="1006" y="154" width="235" height="321" as="geometry">
            <mxRectangle x="230" y="140" width="160" height="26" as="alternateBounds" />
          </mxGeometry>
        </mxCell>
        <mxCell id="zkfFHV4jXpPFQw0GAbJ--1" value="- customerId: string" style="text;align=left;verticalAlign=top;spacingLeft=4;spacingRight=4;overflow=hidden;rotatable=0;points=[[0,0.5],[1,0.5]];portConstraint=eastwest;" parent="zkfFHV4jXpPFQw0GAbJ--0" vertex="1">
          <mxGeometry y="26" width="235" height="26" as="geometry" />
        </mxCell>
        <mxCell id="euG2sOZZnq1hkifUm2rw-5" value="- name: string" style="text;align=left;verticalAlign=top;spacingLeft=4;spacingRight=4;overflow=hidden;rotatable=0;points=[[0,0.5],[1,0.5]];portConstraint=eastwest;" parent="zkfFHV4jXpPFQw0GAbJ--0" vertex="1">
          <mxGeometry y="52" width="235" height="26" as="geometry" />
        </mxCell>
        <mxCell id="zkfFHV4jXpPFQw0GAbJ--2" value="- phoneNumber: string" style="text;align=left;verticalAlign=top;spacingLeft=4;spacingRight=4;overflow=hidden;rotatable=0;points=[[0,0.5],[1,0.5]];portConstraint=eastwest;rounded=0;shadow=0;html=0;" parent="zkfFHV4jXpPFQw0GAbJ--0" vertex="1">
          <mxGeometry y="78" width="235" height="26" as="geometry" />
        </mxCell>
        <mxCell id="zkfFHV4jXpPFQw0GAbJ--3" value="- birthday: string" style="text;align=left;verticalAlign=top;spacingLeft=4;spacingRight=4;overflow=hidden;rotatable=0;points=[[0,0.5],[1,0.5]];portConstraint=eastwest;rounded=0;shadow=0;html=0;" parent="zkfFHV4jXpPFQw0GAbJ--0" vertex="1">
          <mxGeometry y="104" width="235" height="26" as="geometry" />
        </mxCell>
        <mxCell id="zkfFHV4jXpPFQw0GAbJ--4" value="" style="line;html=1;strokeWidth=1;align=left;verticalAlign=middle;spacingTop=-1;spacingLeft=3;spacingRight=3;rotatable=0;labelPosition=right;points=[];portConstraint=eastwest;" parent="zkfFHV4jXpPFQw0GAbJ--0" vertex="1">
          <mxGeometry y="130" width="235" height="8" as="geometry" />
        </mxCell>
        <mxCell id="zkfFHV4jXpPFQw0GAbJ--5" value="+ show(): void" style="text;align=left;verticalAlign=top;spacingLeft=4;spacingRight=4;overflow=hidden;rotatable=0;points=[[0,0.5],[1,0.5]];portConstraint=eastwest;" parent="zkfFHV4jXpPFQw0GAbJ--0" vertex="1">
          <mxGeometry y="138" width="235" height="26" as="geometry" />
        </mxCell>
        <mxCell id="euG2sOZZnq1hkifUm2rw-6" value="+ isEmpty(): bool" style="text;align=left;verticalAlign=top;spacingLeft=4;spacingRight=4;overflow=hidden;rotatable=0;points=[[0,0.5],[1,0.5]];portConstraint=eastwest;" parent="zkfFHV4jXpPFQw0GAbJ--0" vertex="1">
          <mxGeometry y="164" width="235" height="26" as="geometry" />
        </mxCell>
        <mxCell id="L5Ty71JDmMKIE8O5UFMq-1" value="+ getAllCustomers: vector&lt;Customer&gt;" style="text;align=left;verticalAlign=top;spacingLeft=4;spacingRight=4;overflow=hidden;rotatable=0;points=[[0,0.5],[1,0.5]];portConstraint=eastwest;fontStyle=4" vertex="1" parent="zkfFHV4jXpPFQw0GAbJ--0">
          <mxGeometry y="190" width="235" height="26" as="geometry" />
        </mxCell>
        <mxCell id="euG2sOZZnq1hkifUm2rw-7" value="+ findByCustomerId: Customer" style="text;align=left;verticalAlign=top;spacingLeft=4;spacingRight=4;overflow=hidden;rotatable=0;points=[[0,0.5],[1,0.5]];portConstraint=eastwest;fontStyle=4" parent="zkfFHV4jXpPFQw0GAbJ--0" vertex="1">
          <mxGeometry y="216" width="235" height="26" as="geometry" />
        </mxCell>
        <mxCell id="euG2sOZZnq1hkifUm2rw-8" value="+ save: void" style="text;align=left;verticalAlign=top;spacingLeft=4;spacingRight=4;overflow=hidden;rotatable=0;points=[[0,0.5],[1,0.5]];portConstraint=eastwest;fontStyle=4" parent="zkfFHV4jXpPFQw0GAbJ--0" vertex="1">
          <mxGeometry y="242" width="235" height="26" as="geometry" />
        </mxCell>
        <mxCell id="euG2sOZZnq1hkifUm2rw-11" value="+ update: void" style="text;align=left;verticalAlign=top;spacingLeft=4;spacingRight=4;overflow=hidden;rotatable=0;points=[[0,0.5],[1,0.5]];portConstraint=eastwest;fontStyle=4" parent="zkfFHV4jXpPFQw0GAbJ--0" vertex="1">
          <mxGeometry y="268" width="235" height="27" as="geometry" />
        </mxCell>
        <mxCell id="euG2sOZZnq1hkifUm2rw-12" value="+ remove: void" style="text;align=left;verticalAlign=top;spacingLeft=4;spacingRight=4;overflow=hidden;rotatable=0;points=[[0,0.5],[1,0.5]];portConstraint=eastwest;fontStyle=4" parent="zkfFHV4jXpPFQw0GAbJ--0" vertex="1">
          <mxGeometry y="295" width="235" height="26" as="geometry" />
        </mxCell>
        <mxCell id="euG2sOZZnq1hkifUm2rw-14" value="Item" style="swimlane;fontStyle=2;align=center;verticalAlign=top;childLayout=stackLayout;horizontal=1;startSize=26;horizontalStack=0;resizeParent=1;resizeLast=0;collapsible=1;marginBottom=0;rounded=0;shadow=0;strokeWidth=1;" parent="WIyWlLk6GJQsqaUBKTNV-1" vertex="1">
          <mxGeometry x="344" y="69" width="235" height="347" as="geometry">
            <mxRectangle x="230" y="140" width="160" height="26" as="alternateBounds" />
          </mxGeometry>
        </mxCell>
        <mxCell id="euG2sOZZnq1hkifUm2rw-15" value="- itemId: int" style="text;align=left;verticalAlign=top;spacingLeft=4;spacingRight=4;overflow=hidden;rotatable=0;points=[[0,0.5],[1,0.5]];portConstraint=eastwest;" parent="euG2sOZZnq1hkifUm2rw-14" vertex="1">
          <mxGeometry y="26" width="235" height="26" as="geometry" />
        </mxCell>
        <mxCell id="euG2sOZZnq1hkifUm2rw-16" value="- orderId: string" style="text;align=left;verticalAlign=top;spacingLeft=4;spacingRight=4;overflow=hidden;rotatable=0;points=[[0,0.5],[1,0.5]];portConstraint=eastwest;" parent="euG2sOZZnq1hkifUm2rw-14" vertex="1">
          <mxGeometry y="52" width="235" height="26" as="geometry" />
        </mxCell>
        <mxCell id="euG2sOZZnq1hkifUm2rw-17" value="- productId: string" style="text;align=left;verticalAlign=top;spacingLeft=4;spacingRight=4;overflow=hidden;rotatable=0;points=[[0,0.5],[1,0.5]];portConstraint=eastwest;rounded=0;shadow=0;html=0;" parent="euG2sOZZnq1hkifUm2rw-14" vertex="1">
          <mxGeometry y="78" width="235" height="26" as="geometry" />
        </mxCell>
        <mxCell id="euG2sOZZnq1hkifUm2rw-18" value="- amount: int" style="text;align=left;verticalAlign=top;spacingLeft=4;spacingRight=4;overflow=hidden;rotatable=0;points=[[0,0.5],[1,0.5]];portConstraint=eastwest;rounded=0;shadow=0;html=0;" parent="euG2sOZZnq1hkifUm2rw-14" vertex="1">
          <mxGeometry y="104" width="235" height="26" as="geometry" />
        </mxCell>
        <mxCell id="euG2sOZZnq1hkifUm2rw-19" value="" style="line;html=1;strokeWidth=1;align=left;verticalAlign=middle;spacingTop=-1;spacingLeft=3;spacingRight=3;rotatable=0;labelPosition=right;points=[];portConstraint=eastwest;" parent="euG2sOZZnq1hkifUm2rw-14" vertex="1">
          <mxGeometry y="130" width="235" height="8" as="geometry" />
        </mxCell>
        <mxCell id="euG2sOZZnq1hkifUm2rw-20" value="+ show(): void" style="text;align=left;verticalAlign=top;spacingLeft=4;spacingRight=4;overflow=hidden;rotatable=0;points=[[0,0.5],[1,0.5]];portConstraint=eastwest;" parent="euG2sOZZnq1hkifUm2rw-14" vertex="1">
          <mxGeometry y="138" width="235" height="26" as="geometry" />
        </mxCell>
        <mxCell id="euG2sOZZnq1hkifUm2rw-21" value="+ isEmpty(): bool" style="text;align=left;verticalAlign=top;spacingLeft=4;spacingRight=4;overflow=hidden;rotatable=0;points=[[0,0.5],[1,0.5]];portConstraint=eastwest;" parent="euG2sOZZnq1hkifUm2rw-14" vertex="1">
          <mxGeometry y="164" width="235" height="26" as="geometry" />
        </mxCell>
        <mxCell id="L5Ty71JDmMKIE8O5UFMq-2" value="+ getAllItems: Item" style="text;align=left;verticalAlign=top;spacingLeft=4;spacingRight=4;overflow=hidden;rotatable=0;points=[[0,0.5],[1,0.5]];portConstraint=eastwest;fontStyle=4" vertex="1" parent="euG2sOZZnq1hkifUm2rw-14">
          <mxGeometry y="190" width="235" height="26" as="geometry" />
        </mxCell>
        <mxCell id="euG2sOZZnq1hkifUm2rw-22" value="+ findByItemId: Item" style="text;align=left;verticalAlign=top;spacingLeft=4;spacingRight=4;overflow=hidden;rotatable=0;points=[[0,0.5],[1,0.5]];portConstraint=eastwest;fontStyle=4" parent="euG2sOZZnq1hkifUm2rw-14" vertex="1">
          <mxGeometry y="216" width="235" height="26" as="geometry" />
        </mxCell>
        <mxCell id="L5Ty71JDmMKIE8O5UFMq-3" value="+ findByOrderId: vector&lt;Item&gt;" style="text;align=left;verticalAlign=top;spacingLeft=4;spacingRight=4;overflow=hidden;rotatable=0;points=[[0,0.5],[1,0.5]];portConstraint=eastwest;fontStyle=4" vertex="1" parent="euG2sOZZnq1hkifUm2rw-14">
          <mxGeometry y="242" width="235" height="26" as="geometry" />
        </mxCell>
        <mxCell id="euG2sOZZnq1hkifUm2rw-23" value="+ save: void" style="text;align=left;verticalAlign=top;spacingLeft=4;spacingRight=4;overflow=hidden;rotatable=0;points=[[0,0.5],[1,0.5]];portConstraint=eastwest;fontStyle=4" parent="euG2sOZZnq1hkifUm2rw-14" vertex="1">
          <mxGeometry y="268" width="235" height="26" as="geometry" />
        </mxCell>
        <mxCell id="euG2sOZZnq1hkifUm2rw-24" value="+ update: void" style="text;align=left;verticalAlign=top;spacingLeft=4;spacingRight=4;overflow=hidden;rotatable=0;points=[[0,0.5],[1,0.5]];portConstraint=eastwest;" parent="euG2sOZZnq1hkifUm2rw-14" vertex="1">
          <mxGeometry y="294" width="235" height="27" as="geometry" />
        </mxCell>
        <mxCell id="euG2sOZZnq1hkifUm2rw-25" value="+ remove: void" style="text;align=left;verticalAlign=top;spacingLeft=4;spacingRight=4;overflow=hidden;rotatable=0;points=[[0,0.5],[1,0.5]];portConstraint=eastwest;" parent="euG2sOZZnq1hkifUm2rw-14" vertex="1">
          <mxGeometry y="321" width="235" height="26" as="geometry" />
        </mxCell>
        <mxCell id="L5Ty71JDmMKIE8O5UFMq-4" value="Product" style="swimlane;fontStyle=2;align=center;verticalAlign=top;childLayout=stackLayout;horizontal=1;startSize=26;horizontalStack=0;resizeParent=1;resizeLast=0;collapsible=1;marginBottom=0;rounded=0;shadow=0;strokeWidth=1;" vertex="1" parent="WIyWlLk6GJQsqaUBKTNV-1">
          <mxGeometry x="13" y="170" width="235" height="347" as="geometry">
            <mxRectangle x="230" y="140" width="160" height="26" as="alternateBounds" />
          </mxGeometry>
        </mxCell>
        <mxCell id="L5Ty71JDmMKIE8O5UFMq-5" value="- productId: string" style="text;align=left;verticalAlign=top;spacingLeft=4;spacingRight=4;overflow=hidden;rotatable=0;points=[[0,0.5],[1,0.5]];portConstraint=eastwest;" vertex="1" parent="L5Ty71JDmMKIE8O5UFMq-4">
          <mxGeometry y="26" width="235" height="26" as="geometry" />
        </mxCell>
        <mxCell id="L5Ty71JDmMKIE8O5UFMq-6" value="- name: string" style="text;align=left;verticalAlign=top;spacingLeft=4;spacingRight=4;overflow=hidden;rotatable=0;points=[[0,0.5],[1,0.5]];portConstraint=eastwest;" vertex="1" parent="L5Ty71JDmMKIE8O5UFMq-4">
          <mxGeometry y="52" width="235" height="26" as="geometry" />
        </mxCell>
        <mxCell id="L5Ty71JDmMKIE8O5UFMq-7" value="- price: float" style="text;align=left;verticalAlign=top;spacingLeft=4;spacingRight=4;overflow=hidden;rotatable=0;points=[[0,0.5],[1,0.5]];portConstraint=eastwest;rounded=0;shadow=0;html=0;" vertex="1" parent="L5Ty71JDmMKIE8O5UFMq-4">
          <mxGeometry y="78" width="235" height="26" as="geometry" />
        </mxCell>
        <mxCell id="L5Ty71JDmMKIE8O5UFMq-8" value="- amount: int" style="text;align=left;verticalAlign=top;spacingLeft=4;spacingRight=4;overflow=hidden;rotatable=0;points=[[0,0.5],[1,0.5]];portConstraint=eastwest;rounded=0;shadow=0;html=0;" vertex="1" parent="L5Ty71JDmMKIE8O5UFMq-4">
          <mxGeometry y="104" width="235" height="26" as="geometry" />
        </mxCell>
        <mxCell id="L5Ty71JDmMKIE8O5UFMq-17" value="- createDate: string" style="text;align=left;verticalAlign=top;spacingLeft=4;spacingRight=4;overflow=hidden;rotatable=0;points=[[0,0.5],[1,0.5]];portConstraint=eastwest;rounded=0;shadow=0;html=0;" vertex="1" parent="L5Ty71JDmMKIE8O5UFMq-4">
          <mxGeometry y="130" width="235" height="26" as="geometry" />
        </mxCell>
        <mxCell id="L5Ty71JDmMKIE8O5UFMq-9" value="" style="line;html=1;strokeWidth=1;align=left;verticalAlign=middle;spacingTop=-1;spacingLeft=3;spacingRight=3;rotatable=0;labelPosition=right;points=[];portConstraint=eastwest;" vertex="1" parent="L5Ty71JDmMKIE8O5UFMq-4">
          <mxGeometry y="156" width="235" height="8" as="geometry" />
        </mxCell>
        <mxCell id="L5Ty71JDmMKIE8O5UFMq-10" value="+ show(): void" style="text;align=left;verticalAlign=top;spacingLeft=4;spacingRight=4;overflow=hidden;rotatable=0;points=[[0,0.5],[1,0.5]];portConstraint=eastwest;" vertex="1" parent="L5Ty71JDmMKIE8O5UFMq-4">
          <mxGeometry y="164" width="235" height="26" as="geometry" />
        </mxCell>
        <mxCell id="L5Ty71JDmMKIE8O5UFMq-11" value="+ isEmpty(): bool" style="text;align=left;verticalAlign=top;spacingLeft=4;spacingRight=4;overflow=hidden;rotatable=0;points=[[0,0.5],[1,0.5]];portConstraint=eastwest;" vertex="1" parent="L5Ty71JDmMKIE8O5UFMq-4">
          <mxGeometry y="190" width="235" height="26" as="geometry" />
        </mxCell>
        <mxCell id="L5Ty71JDmMKIE8O5UFMq-12" value="+ getAllProdcuts: vector&lt;Product&gt;" style="text;align=left;verticalAlign=top;spacingLeft=4;spacingRight=4;overflow=hidden;rotatable=0;points=[[0,0.5],[1,0.5]];portConstraint=eastwest;fontStyle=4" vertex="1" parent="L5Ty71JDmMKIE8O5UFMq-4">
          <mxGeometry y="216" width="235" height="26" as="geometry" />
        </mxCell>
        <mxCell id="L5Ty71JDmMKIE8O5UFMq-13" value="+ findByProdcutId: Product" style="text;align=left;verticalAlign=top;spacingLeft=4;spacingRight=4;overflow=hidden;rotatable=0;points=[[0,0.5],[1,0.5]];portConstraint=eastwest;fontStyle=4" vertex="1" parent="L5Ty71JDmMKIE8O5UFMq-4">
          <mxGeometry y="242" width="235" height="26" as="geometry" />
        </mxCell>
        <mxCell id="L5Ty71JDmMKIE8O5UFMq-14" value="+ save: void" style="text;align=left;verticalAlign=top;spacingLeft=4;spacingRight=4;overflow=hidden;rotatable=0;points=[[0,0.5],[1,0.5]];portConstraint=eastwest;fontStyle=4" vertex="1" parent="L5Ty71JDmMKIE8O5UFMq-4">
          <mxGeometry y="268" width="235" height="26" as="geometry" />
        </mxCell>
        <mxCell id="L5Ty71JDmMKIE8O5UFMq-15" value="+ update: void" style="text;align=left;verticalAlign=top;spacingLeft=4;spacingRight=4;overflow=hidden;rotatable=0;points=[[0,0.5],[1,0.5]];portConstraint=eastwest;fontStyle=4" vertex="1" parent="L5Ty71JDmMKIE8O5UFMq-4">
          <mxGeometry y="294" width="235" height="27" as="geometry" />
        </mxCell>
        <mxCell id="L5Ty71JDmMKIE8O5UFMq-16" value="+ remove: void" style="text;align=left;verticalAlign=top;spacingLeft=4;spacingRight=4;overflow=hidden;rotatable=0;points=[[0,0.5],[1,0.5]];portConstraint=eastwest;fontStyle=4" vertex="1" parent="L5Ty71JDmMKIE8O5UFMq-4">
          <mxGeometry y="321" width="235" height="26" as="geometry" />
        </mxCell>
        <mxCell id="L5Ty71JDmMKIE8O5UFMq-19" value="Order" style="swimlane;fontStyle=2;align=center;verticalAlign=top;childLayout=stackLayout;horizontal=1;startSize=26;horizontalStack=0;resizeParent=1;resizeLast=0;collapsible=1;marginBottom=0;rounded=0;shadow=0;strokeWidth=1;" vertex="1" parent="WIyWlLk6GJQsqaUBKTNV-1">
          <mxGeometry x="680" y="150" width="235" height="399" as="geometry">
            <mxRectangle x="230" y="140" width="160" height="26" as="alternateBounds" />
          </mxGeometry>
        </mxCell>
        <mxCell id="L5Ty71JDmMKIE8O5UFMq-20" value="- orderId:: string" style="text;align=left;verticalAlign=top;spacingLeft=4;spacingRight=4;overflow=hidden;rotatable=0;points=[[0,0.5],[1,0.5]];portConstraint=eastwest;" vertex="1" parent="L5Ty71JDmMKIE8O5UFMq-19">
          <mxGeometry y="26" width="235" height="26" as="geometry" />
        </mxCell>
        <mxCell id="L5Ty71JDmMKIE8O5UFMq-21" value="- customerId: string" style="text;align=left;verticalAlign=top;spacingLeft=4;spacingRight=4;overflow=hidden;rotatable=0;points=[[0,0.5],[1,0.5]];portConstraint=eastwest;" vertex="1" parent="L5Ty71JDmMKIE8O5UFMq-19">
          <mxGeometry y="52" width="235" height="26" as="geometry" />
        </mxCell>
        <mxCell id="L5Ty71JDmMKIE8O5UFMq-22" value="- totalAmount: float" style="text;align=left;verticalAlign=top;spacingLeft=4;spacingRight=4;overflow=hidden;rotatable=0;points=[[0,0.5],[1,0.5]];portConstraint=eastwest;rounded=0;shadow=0;html=0;" vertex="1" parent="L5Ty71JDmMKIE8O5UFMq-19">
          <mxGeometry y="78" width="235" height="26" as="geometry" />
        </mxCell>
        <mxCell id="L5Ty71JDmMKIE8O5UFMq-23" value="- createDate: string" style="text;align=left;verticalAlign=top;spacingLeft=4;spacingRight=4;overflow=hidden;rotatable=0;points=[[0,0.5],[1,0.5]];portConstraint=eastwest;rounded=0;shadow=0;html=0;" vertex="1" parent="L5Ty71JDmMKIE8O5UFMq-19">
          <mxGeometry y="104" width="235" height="26" as="geometry" />
        </mxCell>
        <mxCell id="L5Ty71JDmMKIE8O5UFMq-32" value="- status: string" style="text;align=left;verticalAlign=top;spacingLeft=4;spacingRight=4;overflow=hidden;rotatable=0;points=[[0,0.5],[1,0.5]];portConstraint=eastwest;rounded=0;shadow=0;html=0;" vertex="1" parent="L5Ty71JDmMKIE8O5UFMq-19">
          <mxGeometry y="130" width="235" height="26" as="geometry" />
        </mxCell>
        <mxCell id="L5Ty71JDmMKIE8O5UFMq-24" value="" style="line;html=1;strokeWidth=1;align=left;verticalAlign=middle;spacingTop=-1;spacingLeft=3;spacingRight=3;rotatable=0;labelPosition=right;points=[];portConstraint=eastwest;" vertex="1" parent="L5Ty71JDmMKIE8O5UFMq-19">
          <mxGeometry y="156" width="235" height="8" as="geometry" />
        </mxCell>
        <mxCell id="L5Ty71JDmMKIE8O5UFMq-25" value="+ show(): void" style="text;align=left;verticalAlign=top;spacingLeft=4;spacingRight=4;overflow=hidden;rotatable=0;points=[[0,0.5],[1,0.5]];portConstraint=eastwest;" vertex="1" parent="L5Ty71JDmMKIE8O5UFMq-19">
          <mxGeometry y="164" width="235" height="26" as="geometry" />
        </mxCell>
        <mxCell id="L5Ty71JDmMKIE8O5UFMq-26" value="+ isEmpty(): bool" style="text;align=left;verticalAlign=top;spacingLeft=4;spacingRight=4;overflow=hidden;rotatable=0;points=[[0,0.5],[1,0.5]];portConstraint=eastwest;" vertex="1" parent="L5Ty71JDmMKIE8O5UFMq-19">
          <mxGeometry y="190" width="235" height="26" as="geometry" />
        </mxCell>
        <mxCell id="L5Ty71JDmMKIE8O5UFMq-33" value="+ addItem(): void" style="text;align=left;verticalAlign=top;spacingLeft=4;spacingRight=4;overflow=hidden;rotatable=0;points=[[0,0.5],[1,0.5]];portConstraint=eastwest;" vertex="1" parent="L5Ty71JDmMKIE8O5UFMq-19">
          <mxGeometry y="216" width="235" height="26" as="geometry" />
        </mxCell>
        <mxCell id="L5Ty71JDmMKIE8O5UFMq-34" value="+ pay(): void" style="text;align=left;verticalAlign=top;spacingLeft=4;spacingRight=4;overflow=hidden;rotatable=0;points=[[0,0.5],[1,0.5]];portConstraint=eastwest;" vertex="1" parent="L5Ty71JDmMKIE8O5UFMq-19">
          <mxGeometry y="242" width="235" height="26" as="geometry" />
        </mxCell>
        <mxCell id="L5Ty71JDmMKIE8O5UFMq-27" value="+ getAllOrders: vector&lt;Order&gt;" style="text;align=left;verticalAlign=top;spacingLeft=4;spacingRight=4;overflow=hidden;rotatable=0;points=[[0,0.5],[1,0.5]];portConstraint=eastwest;fontStyle=4" vertex="1" parent="L5Ty71JDmMKIE8O5UFMq-19">
          <mxGeometry y="268" width="235" height="26" as="geometry" />
        </mxCell>
        <mxCell id="L5Ty71JDmMKIE8O5UFMq-28" value="+ findByOrderId: Order" style="text;align=left;verticalAlign=top;spacingLeft=4;spacingRight=4;overflow=hidden;rotatable=0;points=[[0,0.5],[1,0.5]];portConstraint=eastwest;fontStyle=4" vertex="1" parent="L5Ty71JDmMKIE8O5UFMq-19">
          <mxGeometry y="294" width="235" height="26" as="geometry" />
        </mxCell>
        <mxCell id="L5Ty71JDmMKIE8O5UFMq-29" value="+ save: void" style="text;align=left;verticalAlign=top;spacingLeft=4;spacingRight=4;overflow=hidden;rotatable=0;points=[[0,0.5],[1,0.5]];portConstraint=eastwest;fontStyle=4" vertex="1" parent="L5Ty71JDmMKIE8O5UFMq-19">
          <mxGeometry y="320" width="235" height="26" as="geometry" />
        </mxCell>
        <mxCell id="L5Ty71JDmMKIE8O5UFMq-30" value="+ update: void" style="text;align=left;verticalAlign=top;spacingLeft=4;spacingRight=4;overflow=hidden;rotatable=0;points=[[0,0.5],[1,0.5]];portConstraint=eastwest;fontStyle=4" vertex="1" parent="L5Ty71JDmMKIE8O5UFMq-19">
          <mxGeometry y="346" width="235" height="27" as="geometry" />
        </mxCell>
        <mxCell id="L5Ty71JDmMKIE8O5UFMq-31" value="+ remove: void" style="text;align=left;verticalAlign=top;spacingLeft=4;spacingRight=4;overflow=hidden;rotatable=0;points=[[0,0.5],[1,0.5]];portConstraint=eastwest;fontStyle=4" vertex="1" parent="L5Ty71JDmMKIE8O5UFMq-19">
          <mxGeometry y="373" width="235" height="26" as="geometry" />
        </mxCell>
        <mxCell id="L5Ty71JDmMKIE8O5UFMq-35" value="" style="endArrow=diamondThin;endFill=0;endSize=24;html=1;rounded=0;entryX=0;entryY=0.5;entryDx=0;entryDy=0;curved=1;exitX=1;exitY=0.5;exitDx=0;exitDy=0;" edge="1" parent="WIyWlLk6GJQsqaUBKTNV-1" source="L5Ty71JDmMKIE8O5UFMq-21" target="zkfFHV4jXpPFQw0GAbJ--1">
          <mxGeometry width="160" relative="1" as="geometry">
            <mxPoint x="836" y="123" as="sourcePoint" />
            <mxPoint x="291" y="144" as="targetPoint" />
          </mxGeometry>
        </mxCell>
        <mxCell id="L5Ty71JDmMKIE8O5UFMq-37" value="" style="endArrow=diamondThin;endFill=0;endSize=24;html=1;rounded=0;curved=1;exitX=1;exitY=0.5;exitDx=0;exitDy=0;entryX=0;entryY=0.5;entryDx=0;entryDy=0;" edge="1" parent="WIyWlLk6GJQsqaUBKTNV-1" source="L5Ty71JDmMKIE8O5UFMq-5" target="euG2sOZZnq1hkifUm2rw-17">
          <mxGeometry width="160" relative="1" as="geometry">
            <mxPoint x="419" y="362" as="sourcePoint" />
            <mxPoint x="291" y="249" as="targetPoint" />
          </mxGeometry>
        </mxCell>
        <mxCell id="L5Ty71JDmMKIE8O5UFMq-38" value="" style="endArrow=diamondThin;endFill=0;endSize=24;html=1;rounded=0;curved=1;exitX=1;exitY=0.5;exitDx=0;exitDy=0;entryX=0;entryY=0.5;entryDx=0;entryDy=0;" edge="1" parent="WIyWlLk6GJQsqaUBKTNV-1" source="euG2sOZZnq1hkifUm2rw-16" target="L5Ty71JDmMKIE8O5UFMq-20">
          <mxGeometry width="160" relative="1" as="geometry">
            <mxPoint x="475" y="211" as="sourcePoint" />
            <mxPoint x="368" y="568" as="targetPoint" />
          </mxGeometry>
        </mxCell>
        <mxCell id="L5Ty71JDmMKIE8O5UFMq-39" style="edgeStyle=orthogonalEdgeStyle;rounded=0;orthogonalLoop=1;jettySize=auto;html=1;exitX=0.5;exitY=0;exitDx=0;exitDy=0;curved=1;" edge="1" parent="WIyWlLk6GJQsqaUBKTNV-1" source="L5Ty71JDmMKIE8O5UFMq-53" target="L5Ty71JDmMKIE8O5UFMq-54">
          <mxGeometry relative="1" as="geometry">
            <mxPoint x="639" y="1387" as="targetPoint" />
          </mxGeometry>
        </mxCell>
        <mxCell id="L5Ty71JDmMKIE8O5UFMq-40" style="edgeStyle=orthogonalEdgeStyle;rounded=0;orthogonalLoop=1;jettySize=auto;html=1;entryX=0.5;entryY=1;entryDx=0;entryDy=0;curved=1;" edge="1" parent="WIyWlLk6GJQsqaUBKTNV-1" source="L5Ty71JDmMKIE8O5UFMq-53" target="L5Ty71JDmMKIE8O5UFMq-64">
          <mxGeometry relative="1" as="geometry" />
        </mxCell>
        <mxCell id="L5Ty71JDmMKIE8O5UFMq-41" style="edgeStyle=orthogonalEdgeStyle;rounded=0;orthogonalLoop=1;jettySize=auto;html=1;entryX=0.5;entryY=1;entryDx=0;entryDy=0;exitX=0.5;exitY=0;exitDx=0;exitDy=0;curved=1;" edge="1" parent="WIyWlLk6GJQsqaUBKTNV-1" source="L5Ty71JDmMKIE8O5UFMq-53" target="L5Ty71JDmMKIE8O5UFMq-63">
          <mxGeometry relative="1" as="geometry" />
        </mxCell>
        <mxCell id="L5Ty71JDmMKIE8O5UFMq-42" style="edgeStyle=orthogonalEdgeStyle;rounded=0;orthogonalLoop=1;jettySize=auto;html=1;entryX=0.5;entryY=1;entryDx=0;entryDy=0;curved=1;" edge="1" parent="WIyWlLk6GJQsqaUBKTNV-1" source="L5Ty71JDmMKIE8O5UFMq-53" target="L5Ty71JDmMKIE8O5UFMq-66">
          <mxGeometry relative="1" as="geometry" />
        </mxCell>
        <mxCell id="L5Ty71JDmMKIE8O5UFMq-43" style="edgeStyle=orthogonalEdgeStyle;rounded=0;orthogonalLoop=1;jettySize=auto;html=1;entryX=0.5;entryY=1;entryDx=0;entryDy=0;curved=1;exitX=0.5;exitY=0;exitDx=0;exitDy=0;" edge="1" parent="WIyWlLk6GJQsqaUBKTNV-1" source="L5Ty71JDmMKIE8O5UFMq-53" target="L5Ty71JDmMKIE8O5UFMq-65">
          <mxGeometry relative="1" as="geometry">
            <Array as="points">
              <mxPoint x="748" y="1502" />
              <mxPoint x="876" y="1502" />
              <mxPoint x="876" y="1387" />
            </Array>
          </mxGeometry>
        </mxCell>
        <mxCell id="L5Ty71JDmMKIE8O5UFMq-44" style="edgeStyle=orthogonalEdgeStyle;rounded=0;orthogonalLoop=1;jettySize=auto;html=1;entryX=0;entryY=0.5;entryDx=0;entryDy=0;curved=1;" edge="1" parent="WIyWlLk6GJQsqaUBKTNV-1" source="L5Ty71JDmMKIE8O5UFMq-53" target="L5Ty71JDmMKIE8O5UFMq-67">
          <mxGeometry relative="1" as="geometry" />
        </mxCell>
        <mxCell id="L5Ty71JDmMKIE8O5UFMq-45" style="edgeStyle=orthogonalEdgeStyle;rounded=0;orthogonalLoop=1;jettySize=auto;html=1;entryX=0;entryY=0.5;entryDx=0;entryDy=0;curved=1;" edge="1" parent="WIyWlLk6GJQsqaUBKTNV-1" source="L5Ty71JDmMKIE8O5UFMq-53" target="L5Ty71JDmMKIE8O5UFMq-56">
          <mxGeometry relative="1" as="geometry" />
        </mxCell>
        <mxCell id="L5Ty71JDmMKIE8O5UFMq-46" style="edgeStyle=orthogonalEdgeStyle;rounded=0;orthogonalLoop=1;jettySize=auto;html=1;entryX=0;entryY=0.5;entryDx=0;entryDy=0;curved=1;" edge="1" parent="WIyWlLk6GJQsqaUBKTNV-1" source="L5Ty71JDmMKIE8O5UFMq-53" target="L5Ty71JDmMKIE8O5UFMq-57">
          <mxGeometry relative="1" as="geometry" />
        </mxCell>
        <mxCell id="L5Ty71JDmMKIE8O5UFMq-47" style="edgeStyle=orthogonalEdgeStyle;rounded=0;orthogonalLoop=1;jettySize=auto;html=1;entryX=0;entryY=0.5;entryDx=0;entryDy=0;curved=1;" edge="1" parent="WIyWlLk6GJQsqaUBKTNV-1" source="L5Ty71JDmMKIE8O5UFMq-53" target="L5Ty71JDmMKIE8O5UFMq-55">
          <mxGeometry relative="1" as="geometry" />
        </mxCell>
        <mxCell id="L5Ty71JDmMKIE8O5UFMq-48" style="edgeStyle=orthogonalEdgeStyle;rounded=0;orthogonalLoop=1;jettySize=auto;html=1;curved=1;" edge="1" parent="WIyWlLk6GJQsqaUBKTNV-1" source="L5Ty71JDmMKIE8O5UFMq-53" target="L5Ty71JDmMKIE8O5UFMq-68">
          <mxGeometry relative="1" as="geometry" />
        </mxCell>
        <mxCell id="L5Ty71JDmMKIE8O5UFMq-49" style="edgeStyle=orthogonalEdgeStyle;rounded=0;orthogonalLoop=1;jettySize=auto;html=1;curved=1;exitX=0.5;exitY=0;exitDx=0;exitDy=0;entryX=0.5;entryY=1;entryDx=0;entryDy=0;" edge="1" parent="WIyWlLk6GJQsqaUBKTNV-1" source="L5Ty71JDmMKIE8O5UFMq-53" target="L5Ty71JDmMKIE8O5UFMq-69">
          <mxGeometry relative="1" as="geometry">
            <mxPoint x="771" y="1304" as="targetPoint" />
          </mxGeometry>
        </mxCell>
        <mxCell id="L5Ty71JDmMKIE8O5UFMq-50" style="edgeStyle=orthogonalEdgeStyle;rounded=0;orthogonalLoop=1;jettySize=auto;html=1;curved=1;entryX=0;entryY=0.5;entryDx=0;entryDy=0;" edge="1" parent="WIyWlLk6GJQsqaUBKTNV-1" source="L5Ty71JDmMKIE8O5UFMq-53" target="L5Ty71JDmMKIE8O5UFMq-75">
          <mxGeometry relative="1" as="geometry" />
        </mxCell>
        <mxCell id="L5Ty71JDmMKIE8O5UFMq-51" style="edgeStyle=orthogonalEdgeStyle;rounded=0;orthogonalLoop=1;jettySize=auto;html=1;entryX=0;entryY=0.5;entryDx=0;entryDy=0;curved=1;" edge="1" parent="WIyWlLk6GJQsqaUBKTNV-1" source="L5Ty71JDmMKIE8O5UFMq-53" target="L5Ty71JDmMKIE8O5UFMq-77">
          <mxGeometry relative="1" as="geometry" />
        </mxCell>
        <mxCell id="L5Ty71JDmMKIE8O5UFMq-52" style="edgeStyle=orthogonalEdgeStyle;rounded=0;orthogonalLoop=1;jettySize=auto;html=1;entryX=0.5;entryY=1;entryDx=0;entryDy=0;curved=1;" edge="1" parent="WIyWlLk6GJQsqaUBKTNV-1" source="L5Ty71JDmMKIE8O5UFMq-53" target="L5Ty71JDmMKIE8O5UFMq-76">
          <mxGeometry relative="1" as="geometry" />
        </mxCell>
        <mxCell id="L5Ty71JDmMKIE8O5UFMq-53" value="Product" style="whiteSpace=wrap;html=1;align=center;" vertex="1" parent="WIyWlLk6GJQsqaUBKTNV-1">
          <mxGeometry x="698" y="1551" width="100" height="40" as="geometry" />
        </mxCell>
        <mxCell id="L5Ty71JDmMKIE8O5UFMq-54" value="Product ID" style="ellipse;whiteSpace=wrap;html=1;align=center;fontStyle=4;" vertex="1" parent="WIyWlLk6GJQsqaUBKTNV-1">
          <mxGeometry x="585" y="1319" width="100" height="40" as="geometry" />
        </mxCell>
        <mxCell id="L5Ty71JDmMKIE8O5UFMq-55" value="Image" style="ellipse;shape=doubleEllipse;margin=3;whiteSpace=wrap;html=1;align=center;" vertex="1" parent="WIyWlLk6GJQsqaUBKTNV-1">
          <mxGeometry x="997" y="1413" width="100" height="40" as="geometry" />
        </mxCell>
        <mxCell id="L5Ty71JDmMKIE8O5UFMq-56" value="Shape" style="ellipse;shape=doubleEllipse;margin=3;whiteSpace=wrap;html=1;align=center;" vertex="1" parent="WIyWlLk6GJQsqaUBKTNV-1">
          <mxGeometry x="1003" y="1456" width="100" height="40" as="geometry" />
        </mxCell>
        <mxCell id="L5Ty71JDmMKIE8O5UFMq-57" value="Color" style="ellipse;shape=doubleEllipse;margin=3;whiteSpace=wrap;html=1;align=center;" vertex="1" parent="WIyWlLk6GJQsqaUBKTNV-1">
          <mxGeometry x="1010" y="1507" width="100" height="40" as="geometry" />
        </mxCell>
        <mxCell id="L5Ty71JDmMKIE8O5UFMq-58" style="edgeStyle=orthogonalEdgeStyle;rounded=0;orthogonalLoop=1;jettySize=auto;html=1;entryX=0.5;entryY=1;entryDx=0;entryDy=0;curved=1;" edge="1" parent="WIyWlLk6GJQsqaUBKTNV-1" source="L5Ty71JDmMKIE8O5UFMq-62" target="L5Ty71JDmMKIE8O5UFMq-83">
          <mxGeometry relative="1" as="geometry" />
        </mxCell>
        <mxCell id="L5Ty71JDmMKIE8O5UFMq-59" style="edgeStyle=orthogonalEdgeStyle;rounded=0;orthogonalLoop=1;jettySize=auto;html=1;entryX=0.99;entryY=0.35;entryDx=0;entryDy=0;curved=1;entryPerimeter=0;" edge="1" parent="WIyWlLk6GJQsqaUBKTNV-1" source="L5Ty71JDmMKIE8O5UFMq-62" target="L5Ty71JDmMKIE8O5UFMq-85">
          <mxGeometry relative="1" as="geometry" />
        </mxCell>
        <mxCell id="L5Ty71JDmMKIE8O5UFMq-60" style="edgeStyle=orthogonalEdgeStyle;rounded=0;orthogonalLoop=1;jettySize=auto;html=1;entryX=1;entryY=0.5;entryDx=0;entryDy=0;curved=1;" edge="1" parent="WIyWlLk6GJQsqaUBKTNV-1" source="L5Ty71JDmMKIE8O5UFMq-62" target="L5Ty71JDmMKIE8O5UFMq-91">
          <mxGeometry relative="1" as="geometry" />
        </mxCell>
        <mxCell id="L5Ty71JDmMKIE8O5UFMq-61" style="edgeStyle=orthogonalEdgeStyle;rounded=0;orthogonalLoop=1;jettySize=auto;html=1;entryX=1;entryY=0.5;entryDx=0;entryDy=0;curved=1;" edge="1" parent="WIyWlLk6GJQsqaUBKTNV-1" source="L5Ty71JDmMKIE8O5UFMq-62" target="L5Ty71JDmMKIE8O5UFMq-86">
          <mxGeometry relative="1" as="geometry" />
        </mxCell>
        <mxCell id="L5Ty71JDmMKIE8O5UFMq-62" value="Brand" style="whiteSpace=wrap;html=1;align=center;" vertex="1" parent="WIyWlLk6GJQsqaUBKTNV-1">
          <mxGeometry x="354" y="1767" width="100" height="40" as="geometry" />
        </mxCell>
        <mxCell id="L5Ty71JDmMKIE8O5UFMq-63" value="Name" style="ellipse;whiteSpace=wrap;html=1;align=center;" vertex="1" parent="WIyWlLk6GJQsqaUBKTNV-1">
          <mxGeometry x="591" y="1436" width="100" height="40" as="geometry" />
        </mxCell>
        <mxCell id="L5Ty71JDmMKIE8O5UFMq-64" value="Description" style="ellipse;whiteSpace=wrap;html=1;align=center;" vertex="1" parent="WIyWlLk6GJQsqaUBKTNV-1">
          <mxGeometry x="664" y="1319" width="100" height="40" as="geometry" />
        </mxCell>
        <mxCell id="L5Ty71JDmMKIE8O5UFMq-65" value="Modified Date" style="ellipse;whiteSpace=wrap;html=1;align=center;" vertex="1" parent="WIyWlLk6GJQsqaUBKTNV-1">
          <mxGeometry x="798" y="1300" width="100" height="40" as="geometry" />
        </mxCell>
        <mxCell id="L5Ty71JDmMKIE8O5UFMq-66" value="Create Date" style="ellipse;whiteSpace=wrap;html=1;align=center;" vertex="1" parent="WIyWlLk6GJQsqaUBKTNV-1">
          <mxGeometry x="739" y="1359" width="100" height="40" as="geometry" />
        </mxCell>
        <mxCell id="L5Ty71JDmMKIE8O5UFMq-67" value="Status" style="ellipse;whiteSpace=wrap;html=1;align=center;" vertex="1" parent="WIyWlLk6GJQsqaUBKTNV-1">
          <mxGeometry x="1048" y="1349" width="100" height="40" as="geometry" />
        </mxCell>
        <mxCell id="L5Ty71JDmMKIE8O5UFMq-68" value="material" style="ellipse;whiteSpace=wrap;html=1;align=center;" vertex="1" parent="WIyWlLk6GJQsqaUBKTNV-1">
          <mxGeometry x="604" y="1271" width="100" height="40" as="geometry" />
        </mxCell>
        <mxCell id="L5Ty71JDmMKIE8O5UFMq-69" value="discount" style="ellipse;whiteSpace=wrap;html=1;align=center;" vertex="1" parent="WIyWlLk6GJQsqaUBKTNV-1">
          <mxGeometry x="725" y="1231" width="100" height="40" as="geometry" />
        </mxCell>
        <mxCell id="L5Ty71JDmMKIE8O5UFMq-70" style="edgeStyle=orthogonalEdgeStyle;rounded=0;orthogonalLoop=1;jettySize=auto;html=1;entryX=1;entryY=0.5;entryDx=0;entryDy=0;curved=1;exitX=0;exitY=0.5;exitDx=0;exitDy=0;" edge="1" parent="WIyWlLk6GJQsqaUBKTNV-1" source="L5Ty71JDmMKIE8O5UFMq-74" target="L5Ty71JDmMKIE8O5UFMq-88">
          <mxGeometry relative="1" as="geometry" />
        </mxCell>
        <mxCell id="L5Ty71JDmMKIE8O5UFMq-71" style="edgeStyle=orthogonalEdgeStyle;rounded=0;orthogonalLoop=1;jettySize=auto;html=1;entryX=1;entryY=0.5;entryDx=0;entryDy=0;curved=1;" edge="1" parent="WIyWlLk6GJQsqaUBKTNV-1" source="L5Ty71JDmMKIE8O5UFMq-74" target="L5Ty71JDmMKIE8O5UFMq-92">
          <mxGeometry relative="1" as="geometry" />
        </mxCell>
        <mxCell id="L5Ty71JDmMKIE8O5UFMq-72" style="edgeStyle=orthogonalEdgeStyle;rounded=0;orthogonalLoop=1;jettySize=auto;html=1;curved=1;" edge="1" parent="WIyWlLk6GJQsqaUBKTNV-1" source="L5Ty71JDmMKIE8O5UFMq-74" target="L5Ty71JDmMKIE8O5UFMq-90">
          <mxGeometry relative="1" as="geometry" />
        </mxCell>
        <mxCell id="L5Ty71JDmMKIE8O5UFMq-73" style="edgeStyle=orthogonalEdgeStyle;rounded=0;orthogonalLoop=1;jettySize=auto;html=1;entryX=1;entryY=0.5;entryDx=0;entryDy=0;curved=1;exitX=0;exitY=0.5;exitDx=0;exitDy=0;" edge="1" parent="WIyWlLk6GJQsqaUBKTNV-1" source="L5Ty71JDmMKIE8O5UFMq-74" target="L5Ty71JDmMKIE8O5UFMq-89">
          <mxGeometry relative="1" as="geometry" />
        </mxCell>
        <mxCell id="L5Ty71JDmMKIE8O5UFMq-74" value="Category" style="whiteSpace=wrap;html=1;align=center;" vertex="1" parent="WIyWlLk6GJQsqaUBKTNV-1">
          <mxGeometry x="325" y="1434" width="100" height="40" as="geometry" />
        </mxCell>
        <mxCell id="L5Ty71JDmMKIE8O5UFMq-75" value="price" style="ellipse;whiteSpace=wrap;html=1;align=center;" vertex="1" parent="WIyWlLk6GJQsqaUBKTNV-1">
          <mxGeometry x="1010" y="1558" width="100" height="40" as="geometry" />
        </mxCell>
        <mxCell id="L5Ty71JDmMKIE8O5UFMq-76" value="expiration_date" style="ellipse;whiteSpace=wrap;html=1;align=center;" vertex="1" parent="WIyWlLk6GJQsqaUBKTNV-1">
          <mxGeometry x="789" y="1431" width="100" height="40" as="geometry" />
        </mxCell>
        <mxCell id="L5Ty71JDmMKIE8O5UFMq-77" value="production_date" style="ellipse;whiteSpace=wrap;html=1;align=center;" vertex="1" parent="WIyWlLk6GJQsqaUBKTNV-1">
          <mxGeometry x="991" y="1640" width="100" height="40" as="geometry" />
        </mxCell>
        <mxCell id="L5Ty71JDmMKIE8O5UFMq-78" value="Has" style="shape=rhombus;perimeter=rhombusPerimeter;whiteSpace=wrap;html=1;align=center;rotation=15;" vertex="1" parent="WIyWlLk6GJQsqaUBKTNV-1">
          <mxGeometry x="493" y="1480" width="120" height="60" as="geometry" />
        </mxCell>
        <mxCell id="L5Ty71JDmMKIE8O5UFMq-79" value="Belong" style="shape=rhombus;perimeter=rhombusPerimeter;whiteSpace=wrap;html=1;align=center;rotation=-210;" vertex="1" parent="WIyWlLk6GJQsqaUBKTNV-1">
          <mxGeometry x="515" y="1662" width="120" height="60" as="geometry" />
        </mxCell>
        <mxCell id="L5Ty71JDmMKIE8O5UFMq-80" value="" style="fontSize=12;html=1;endArrow=ERmandOne;rounded=0;exitX=0;exitY=0.5;exitDx=0;exitDy=0;entryX=0;entryY=1;entryDx=0;entryDy=0;" edge="1" parent="WIyWlLk6GJQsqaUBKTNV-1" source="L5Ty71JDmMKIE8O5UFMq-79" target="L5Ty71JDmMKIE8O5UFMq-53">
          <mxGeometry width="100" height="100" relative="1" as="geometry">
            <mxPoint x="403" y="1430" as="sourcePoint" />
            <mxPoint x="503" y="1330" as="targetPoint" />
          </mxGeometry>
        </mxCell>
        <mxCell id="L5Ty71JDmMKIE8O5UFMq-81" value="" style="fontSize=12;html=1;endArrow=ERmandOne;rounded=0;exitX=1;exitY=0.5;exitDx=0;exitDy=0;entryX=1;entryY=0;entryDx=0;entryDy=0;" edge="1" parent="WIyWlLk6GJQsqaUBKTNV-1" source="L5Ty71JDmMKIE8O5UFMq-79" target="L5Ty71JDmMKIE8O5UFMq-62">
          <mxGeometry width="100" height="100" relative="1" as="geometry">
            <mxPoint x="43" y="1612" as="sourcePoint" />
            <mxPoint x="143" y="1512" as="targetPoint" />
          </mxGeometry>
        </mxCell>
        <mxCell id="L5Ty71JDmMKIE8O5UFMq-82" value="" style="fontSize=12;html=1;endArrow=ERmandOne;rounded=0;exitX=0;exitY=0.5;exitDx=0;exitDy=0;entryX=1;entryY=1;entryDx=0;entryDy=0;" edge="1" parent="WIyWlLk6GJQsqaUBKTNV-1" source="L5Ty71JDmMKIE8O5UFMq-78" target="L5Ty71JDmMKIE8O5UFMq-74">
          <mxGeometry width="100" height="100" relative="1" as="geometry">
            <mxPoint x="403" y="1550" as="sourcePoint" />
            <mxPoint x="503" y="1450" as="targetPoint" />
          </mxGeometry>
        </mxCell>
        <mxCell id="L5Ty71JDmMKIE8O5UFMq-83" value="Brand ID" style="ellipse;whiteSpace=wrap;html=1;align=center;fontStyle=4;" vertex="1" parent="WIyWlLk6GJQsqaUBKTNV-1">
          <mxGeometry x="252" y="1626" width="100" height="40" as="geometry" />
        </mxCell>
        <mxCell id="L5Ty71JDmMKIE8O5UFMq-84" value="Deleted" style="ellipse;whiteSpace=wrap;html=1;align=center;" vertex="1" parent="WIyWlLk6GJQsqaUBKTNV-1">
          <mxGeometry x="171" y="1883" width="100" height="40" as="geometry" />
        </mxCell>
        <mxCell id="L5Ty71JDmMKIE8O5UFMq-85" value="Create Date" style="ellipse;whiteSpace=wrap;html=1;align=center;" vertex="1" parent="WIyWlLk6GJQsqaUBKTNV-1">
          <mxGeometry x="90" y="1812" width="100" height="40" as="geometry" />
        </mxCell>
        <mxCell id="L5Ty71JDmMKIE8O5UFMq-86" value="Name" style="ellipse;whiteSpace=wrap;html=1;align=center;" vertex="1" parent="WIyWlLk6GJQsqaUBKTNV-1">
          <mxGeometry x="117" y="1656" width="100" height="40" as="geometry" />
        </mxCell>
        <mxCell id="L5Ty71JDmMKIE8O5UFMq-87" style="edgeStyle=orthogonalEdgeStyle;rounded=0;orthogonalLoop=1;jettySize=auto;html=1;entryX=1;entryY=0.5;entryDx=0;entryDy=0;curved=1;" edge="1" parent="WIyWlLk6GJQsqaUBKTNV-1" source="L5Ty71JDmMKIE8O5UFMq-62" target="L5Ty71JDmMKIE8O5UFMq-84">
          <mxGeometry relative="1" as="geometry" />
        </mxCell>
        <mxCell id="L5Ty71JDmMKIE8O5UFMq-88" value="Category ID" style="ellipse;whiteSpace=wrap;html=1;align=center;fontStyle=4;" vertex="1" parent="WIyWlLk6GJQsqaUBKTNV-1">
          <mxGeometry x="183" y="1297" width="100" height="40" as="geometry" />
        </mxCell>
        <mxCell id="L5Ty71JDmMKIE8O5UFMq-89" value="Create Date" style="ellipse;whiteSpace=wrap;html=1;align=center;" vertex="1" parent="WIyWlLk6GJQsqaUBKTNV-1">
          <mxGeometry x="95" y="1413" width="100" height="40" as="geometry" />
        </mxCell>
        <mxCell id="L5Ty71JDmMKIE8O5UFMq-90" value="Deleted" style="ellipse;whiteSpace=wrap;html=1;align=center;" vertex="1" parent="WIyWlLk6GJQsqaUBKTNV-1">
          <mxGeometry x="162" y="1507" width="100" height="40" as="geometry" />
        </mxCell>
        <mxCell id="L5Ty71JDmMKIE8O5UFMq-91" value="Description" style="ellipse;whiteSpace=wrap;html=1;align=center;" vertex="1" parent="WIyWlLk6GJQsqaUBKTNV-1">
          <mxGeometry x="92" y="1722" width="100" height="40" as="geometry" />
        </mxCell>
        <mxCell id="L5Ty71JDmMKIE8O5UFMq-92" value="Name" style="ellipse;whiteSpace=wrap;html=1;align=center;" vertex="1" parent="WIyWlLk6GJQsqaUBKTNV-1">
          <mxGeometry x="155" y="1361" width="100" height="40" as="geometry" />
        </mxCell>
        <mxCell id="L5Ty71JDmMKIE8O5UFMq-93" value="" style="fontSize=12;html=1;endArrow=ERmandOne;rounded=0;exitX=1;exitY=0.5;exitDx=0;exitDy=0;entryX=0;entryY=0;entryDx=0;entryDy=0;" edge="1" parent="WIyWlLk6GJQsqaUBKTNV-1" source="L5Ty71JDmMKIE8O5UFMq-78" target="L5Ty71JDmMKIE8O5UFMq-53">
          <mxGeometry width="100" height="100" relative="1" as="geometry">
            <mxPoint x="505" y="1504" as="sourcePoint" />
            <mxPoint x="414" y="1474" as="targetPoint" />
          </mxGeometry>
        </mxCell>
        <mxCell id="L5Ty71JDmMKIE8O5UFMq-94" style="edgeStyle=orthogonalEdgeStyle;rounded=0;orthogonalLoop=1;jettySize=auto;html=1;entryX=0;entryY=0.5;entryDx=0;entryDy=0;curved=1;" edge="1" parent="WIyWlLk6GJQsqaUBKTNV-1" source="L5Ty71JDmMKIE8O5UFMq-102" target="L5Ty71JDmMKIE8O5UFMq-103">
          <mxGeometry relative="1" as="geometry" />
        </mxCell>
        <mxCell id="L5Ty71JDmMKIE8O5UFMq-95" style="edgeStyle=orthogonalEdgeStyle;rounded=0;orthogonalLoop=1;jettySize=auto;html=1;entryX=0;entryY=0.5;entryDx=0;entryDy=0;curved=1;" edge="1" parent="WIyWlLk6GJQsqaUBKTNV-1" source="L5Ty71JDmMKIE8O5UFMq-102" target="L5Ty71JDmMKIE8O5UFMq-106">
          <mxGeometry relative="1" as="geometry" />
        </mxCell>
        <mxCell id="L5Ty71JDmMKIE8O5UFMq-96" style="edgeStyle=orthogonalEdgeStyle;rounded=0;orthogonalLoop=1;jettySize=auto;html=1;entryX=0;entryY=0.5;entryDx=0;entryDy=0;curved=1;" edge="1" parent="WIyWlLk6GJQsqaUBKTNV-1" source="L5Ty71JDmMKIE8O5UFMq-102" target="L5Ty71JDmMKIE8O5UFMq-104">
          <mxGeometry relative="1" as="geometry" />
        </mxCell>
        <mxCell id="L5Ty71JDmMKIE8O5UFMq-97" style="edgeStyle=orthogonalEdgeStyle;rounded=0;orthogonalLoop=1;jettySize=auto;html=1;entryX=0;entryY=0.5;entryDx=0;entryDy=0;curved=1;" edge="1" parent="WIyWlLk6GJQsqaUBKTNV-1" source="L5Ty71JDmMKIE8O5UFMq-102" target="L5Ty71JDmMKIE8O5UFMq-107">
          <mxGeometry relative="1" as="geometry" />
        </mxCell>
        <mxCell id="L5Ty71JDmMKIE8O5UFMq-98" style="edgeStyle=orthogonalEdgeStyle;rounded=0;orthogonalLoop=1;jettySize=auto;html=1;entryX=0;entryY=0.5;entryDx=0;entryDy=0;curved=1;" edge="1" parent="WIyWlLk6GJQsqaUBKTNV-1" source="L5Ty71JDmMKIE8O5UFMq-102" target="L5Ty71JDmMKIE8O5UFMq-109">
          <mxGeometry relative="1" as="geometry" />
        </mxCell>
        <mxCell id="L5Ty71JDmMKIE8O5UFMq-99" style="edgeStyle=orthogonalEdgeStyle;rounded=0;orthogonalLoop=1;jettySize=auto;html=1;entryX=0;entryY=0.5;entryDx=0;entryDy=0;curved=1;" edge="1" parent="WIyWlLk6GJQsqaUBKTNV-1" source="L5Ty71JDmMKIE8O5UFMq-102" target="L5Ty71JDmMKIE8O5UFMq-108">
          <mxGeometry relative="1" as="geometry" />
        </mxCell>
        <mxCell id="L5Ty71JDmMKIE8O5UFMq-100" style="edgeStyle=orthogonalEdgeStyle;rounded=0;orthogonalLoop=1;jettySize=auto;html=1;curved=1;" edge="1" parent="WIyWlLk6GJQsqaUBKTNV-1" source="L5Ty71JDmMKIE8O5UFMq-102" target="L5Ty71JDmMKIE8O5UFMq-105">
          <mxGeometry relative="1" as="geometry" />
        </mxCell>
        <mxCell id="L5Ty71JDmMKIE8O5UFMq-101" style="edgeStyle=orthogonalEdgeStyle;rounded=0;orthogonalLoop=1;jettySize=auto;html=1;entryX=0.5;entryY=0;entryDx=0;entryDy=0;curved=1;" edge="1" parent="WIyWlLk6GJQsqaUBKTNV-1" source="L5Ty71JDmMKIE8O5UFMq-102" target="L5Ty71JDmMKIE8O5UFMq-110">
          <mxGeometry relative="1" as="geometry" />
        </mxCell>
        <mxCell id="L5Ty71JDmMKIE8O5UFMq-102" value="Store" style="whiteSpace=wrap;html=1;align=center;" vertex="1" parent="WIyWlLk6GJQsqaUBKTNV-1">
          <mxGeometry x="704" y="1987" width="100" height="40" as="geometry" />
        </mxCell>
        <mxCell id="L5Ty71JDmMKIE8O5UFMq-103" value="Store ID" style="ellipse;whiteSpace=wrap;html=1;align=center;fontStyle=4;" vertex="1" parent="WIyWlLk6GJQsqaUBKTNV-1">
          <mxGeometry x="903" y="1817" width="100" height="40" as="geometry" />
        </mxCell>
        <mxCell id="L5Ty71JDmMKIE8O5UFMq-104" value="Phone Number" style="ellipse;whiteSpace=wrap;html=1;align=center;" vertex="1" parent="WIyWlLk6GJQsqaUBKTNV-1">
          <mxGeometry x="948" y="1943" width="100" height="40" as="geometry" />
        </mxCell>
        <mxCell id="L5Ty71JDmMKIE8O5UFMq-105" value="Create Date" style="ellipse;whiteSpace=wrap;html=1;align=center;" vertex="1" parent="WIyWlLk6GJQsqaUBKTNV-1">
          <mxGeometry x="846" y="2191" width="100" height="40" as="geometry" />
        </mxCell>
        <mxCell id="L5Ty71JDmMKIE8O5UFMq-106" value="Name" style="ellipse;whiteSpace=wrap;html=1;align=center;" vertex="1" parent="WIyWlLk6GJQsqaUBKTNV-1">
          <mxGeometry x="930" y="1887" width="100" height="40" as="geometry" />
        </mxCell>
        <mxCell id="L5Ty71JDmMKIE8O5UFMq-107" value="Address" style="ellipse;whiteSpace=wrap;html=1;align=center;" vertex="1" parent="WIyWlLk6GJQsqaUBKTNV-1">
          <mxGeometry x="942" y="2006" width="100" height="40" as="geometry" />
        </mxCell>
        <mxCell id="L5Ty71JDmMKIE8O5UFMq-108" value="Work End Time" style="ellipse;whiteSpace=wrap;html=1;align=center;" vertex="1" parent="WIyWlLk6GJQsqaUBKTNV-1">
          <mxGeometry x="951" y="2129" width="100" height="40" as="geometry" />
        </mxCell>
        <mxCell id="L5Ty71JDmMKIE8O5UFMq-109" value="Work Start Time" style="ellipse;whiteSpace=wrap;html=1;align=center;" vertex="1" parent="WIyWlLk6GJQsqaUBKTNV-1">
          <mxGeometry x="976" y="2079" width="100" height="40" as="geometry" />
        </mxCell>
        <mxCell id="L5Ty71JDmMKIE8O5UFMq-110" value="Status" style="ellipse;whiteSpace=wrap;html=1;align=center;" vertex="1" parent="WIyWlLk6GJQsqaUBKTNV-1">
          <mxGeometry x="704" y="2174" width="100" height="40" as="geometry" />
        </mxCell>
        <mxCell id="L5Ty71JDmMKIE8O5UFMq-111" value="" style="fontSize=12;html=1;endArrow=ERmandOne;rounded=0;entryX=0.5;entryY=1;entryDx=0;entryDy=0;exitX=0;exitY=0.5;exitDx=0;exitDy=0;" edge="1" parent="WIyWlLk6GJQsqaUBKTNV-1" source="L5Ty71JDmMKIE8O5UFMq-112" target="L5Ty71JDmMKIE8O5UFMq-53">
          <mxGeometry width="100" height="100" relative="1" as="geometry">
            <mxPoint x="417" y="1882" as="sourcePoint" />
            <mxPoint x="517" y="1782" as="targetPoint" />
          </mxGeometry>
        </mxCell>
        <mxCell id="L5Ty71JDmMKIE8O5UFMq-112" value="Relationship" style="shape=rhombus;double=1;perimeter=rhombusPerimeter;whiteSpace=wrap;html=1;align=center;rotation=90;" vertex="1" parent="WIyWlLk6GJQsqaUBKTNV-1">
          <mxGeometry x="678" y="1769" width="120" height="60" as="geometry" />
        </mxCell>
        <mxCell id="L5Ty71JDmMKIE8O5UFMq-317" style="edgeStyle=orthogonalEdgeStyle;rounded=0;orthogonalLoop=1;jettySize=auto;html=1;entryX=1;entryY=0.5;entryDx=0;entryDy=0;curved=1;" edge="1" parent="WIyWlLk6GJQsqaUBKTNV-1" source="L5Ty71JDmMKIE8O5UFMq-327" target="L5Ty71JDmMKIE8O5UFMq-328">
          <mxGeometry relative="1" as="geometry" />
        </mxCell>
        <mxCell id="L5Ty71JDmMKIE8O5UFMq-318" value="" style="edgeStyle=orthogonalEdgeStyle;rounded=0;orthogonalLoop=1;jettySize=auto;html=1;curved=1;entryX=1;entryY=0.5;entryDx=0;entryDy=0;" edge="1" parent="WIyWlLk6GJQsqaUBKTNV-1" source="L5Ty71JDmMKIE8O5UFMq-327" target="L5Ty71JDmMKIE8O5UFMq-329">
          <mxGeometry relative="1" as="geometry" />
        </mxCell>
        <mxCell id="L5Ty71JDmMKIE8O5UFMq-319" style="edgeStyle=orthogonalEdgeStyle;rounded=0;orthogonalLoop=1;jettySize=auto;html=1;entryX=0.5;entryY=1;entryDx=0;entryDy=0;curved=1;" edge="1" parent="WIyWlLk6GJQsqaUBKTNV-1" source="L5Ty71JDmMKIE8O5UFMq-327" target="L5Ty71JDmMKIE8O5UFMq-334">
          <mxGeometry relative="1" as="geometry" />
        </mxCell>
        <mxCell id="L5Ty71JDmMKIE8O5UFMq-320" style="edgeStyle=orthogonalEdgeStyle;rounded=0;orthogonalLoop=1;jettySize=auto;html=1;entryX=0.5;entryY=1;entryDx=0;entryDy=0;curved=1;" edge="1" parent="WIyWlLk6GJQsqaUBKTNV-1" source="L5Ty71JDmMKIE8O5UFMq-327" target="L5Ty71JDmMKIE8O5UFMq-331">
          <mxGeometry relative="1" as="geometry" />
        </mxCell>
        <mxCell id="L5Ty71JDmMKIE8O5UFMq-321" value="" style="edgeStyle=orthogonalEdgeStyle;rounded=0;orthogonalLoop=1;jettySize=auto;html=1;curved=1;" edge="1" parent="WIyWlLk6GJQsqaUBKTNV-1" source="L5Ty71JDmMKIE8O5UFMq-327" target="L5Ty71JDmMKIE8O5UFMq-335">
          <mxGeometry relative="1" as="geometry" />
        </mxCell>
        <mxCell id="L5Ty71JDmMKIE8O5UFMq-322" style="edgeStyle=orthogonalEdgeStyle;rounded=0;orthogonalLoop=1;jettySize=auto;html=1;entryX=1;entryY=0.5;entryDx=0;entryDy=0;curved=1;" edge="1" parent="WIyWlLk6GJQsqaUBKTNV-1" source="L5Ty71JDmMKIE8O5UFMq-327" target="L5Ty71JDmMKIE8O5UFMq-336">
          <mxGeometry relative="1" as="geometry" />
        </mxCell>
        <mxCell id="L5Ty71JDmMKIE8O5UFMq-323" style="edgeStyle=orthogonalEdgeStyle;rounded=0;orthogonalLoop=1;jettySize=auto;html=1;entryX=1;entryY=0.5;entryDx=0;entryDy=0;curved=1;" edge="1" parent="WIyWlLk6GJQsqaUBKTNV-1" source="L5Ty71JDmMKIE8O5UFMq-327" target="L5Ty71JDmMKIE8O5UFMq-333">
          <mxGeometry relative="1" as="geometry" />
        </mxCell>
        <mxCell id="L5Ty71JDmMKIE8O5UFMq-324" style="edgeStyle=orthogonalEdgeStyle;rounded=0;orthogonalLoop=1;jettySize=auto;html=1;curved=1;" edge="1" parent="WIyWlLk6GJQsqaUBKTNV-1" source="L5Ty71JDmMKIE8O5UFMq-327" target="L5Ty71JDmMKIE8O5UFMq-337">
          <mxGeometry relative="1" as="geometry" />
        </mxCell>
        <mxCell id="L5Ty71JDmMKIE8O5UFMq-325" style="edgeStyle=orthogonalEdgeStyle;rounded=0;orthogonalLoop=1;jettySize=auto;html=1;" edge="1" parent="WIyWlLk6GJQsqaUBKTNV-1" source="L5Ty71JDmMKIE8O5UFMq-327" target="L5Ty71JDmMKIE8O5UFMq-393">
          <mxGeometry relative="1" as="geometry" />
        </mxCell>
        <mxCell id="L5Ty71JDmMKIE8O5UFMq-326" style="edgeStyle=orthogonalEdgeStyle;rounded=0;orthogonalLoop=1;jettySize=auto;html=1;entryX=0.5;entryY=1;entryDx=0;entryDy=0;curved=1;exitX=0.5;exitY=0;exitDx=0;exitDy=0;" edge="1" parent="WIyWlLk6GJQsqaUBKTNV-1" source="L5Ty71JDmMKIE8O5UFMq-327" target="L5Ty71JDmMKIE8O5UFMq-332">
          <mxGeometry relative="1" as="geometry" />
        </mxCell>
        <mxCell id="L5Ty71JDmMKIE8O5UFMq-327" value="User" style="whiteSpace=wrap;html=1;align=center;fillColor=#008a00;strokeColor=#005700;fontColor=#ffffff;" vertex="1" parent="WIyWlLk6GJQsqaUBKTNV-1">
          <mxGeometry x="444" y="2646" width="100" height="40" as="geometry" />
        </mxCell>
        <mxCell id="L5Ty71JDmMKIE8O5UFMq-328" value="User ID" style="ellipse;whiteSpace=wrap;html=1;align=center;fontStyle=4;" vertex="1" parent="WIyWlLk6GJQsqaUBKTNV-1">
          <mxGeometry x="181" y="2557" width="100" height="40" as="geometry" />
        </mxCell>
        <mxCell id="L5Ty71JDmMKIE8O5UFMq-329" value="Full Name" style="ellipse;whiteSpace=wrap;html=1;align=center;" vertex="1" parent="WIyWlLk6GJQsqaUBKTNV-1">
          <mxGeometry x="202" y="2477" width="100" height="40" as="geometry" />
        </mxCell>
        <mxCell id="L5Ty71JDmMKIE8O5UFMq-330" value="Birthday" style="ellipse;whiteSpace=wrap;html=1;align=center;" vertex="1" parent="WIyWlLk6GJQsqaUBKTNV-1">
          <mxGeometry x="397" y="2397" width="100" height="40" as="geometry" />
        </mxCell>
        <mxCell id="L5Ty71JDmMKIE8O5UFMq-331" value="Password" style="ellipse;whiteSpace=wrap;html=1;align=center;" vertex="1" parent="WIyWlLk6GJQsqaUBKTNV-1">
          <mxGeometry x="362" y="2495" width="100" height="40" as="geometry" />
        </mxCell>
        <mxCell id="L5Ty71JDmMKIE8O5UFMq-332" value="Phone Number" style="ellipse;whiteSpace=wrap;html=1;align=center;" vertex="1" parent="WIyWlLk6GJQsqaUBKTNV-1">
          <mxGeometry x="595" y="2426" width="100" height="40" as="geometry" />
        </mxCell>
        <mxCell id="L5Ty71JDmMKIE8O5UFMq-333" value="Modified Date" style="ellipse;whiteSpace=wrap;html=1;align=center;" vertex="1" parent="WIyWlLk6GJQsqaUBKTNV-1">
          <mxGeometry x="181" y="2677" width="100" height="40" as="geometry" />
        </mxCell>
        <mxCell id="L5Ty71JDmMKIE8O5UFMq-334" value="Email" style="ellipse;whiteSpace=wrap;html=1;align=center;" vertex="1" parent="WIyWlLk6GJQsqaUBKTNV-1">
          <mxGeometry x="480" y="2446" width="100" height="40" as="geometry" />
        </mxCell>
        <mxCell id="L5Ty71JDmMKIE8O5UFMq-335" value="Avatar" style="ellipse;whiteSpace=wrap;html=1;align=center;" vertex="1" parent="WIyWlLk6GJQsqaUBKTNV-1">
          <mxGeometry x="539" y="2366" width="100" height="40" as="geometry" />
        </mxCell>
        <mxCell id="L5Ty71JDmMKIE8O5UFMq-336" value="Create Date" style="ellipse;whiteSpace=wrap;html=1;align=center;" vertex="1" parent="WIyWlLk6GJQsqaUBKTNV-1">
          <mxGeometry x="189" y="2730" width="100" height="40" as="geometry" />
        </mxCell>
        <mxCell id="L5Ty71JDmMKIE8O5UFMq-337" value="Status" style="ellipse;whiteSpace=wrap;html=1;align=center;" vertex="1" parent="WIyWlLk6GJQsqaUBKTNV-1">
          <mxGeometry x="181" y="2620" width="100" height="40" as="geometry" />
        </mxCell>
        <mxCell id="L5Ty71JDmMKIE8O5UFMq-338" style="edgeStyle=orthogonalEdgeStyle;rounded=0;orthogonalLoop=1;jettySize=auto;html=1;entryX=0.5;entryY=1;entryDx=0;entryDy=0;curved=1;" edge="1" parent="WIyWlLk6GJQsqaUBKTNV-1" source="L5Ty71JDmMKIE8O5UFMq-344" target="L5Ty71JDmMKIE8O5UFMq-345">
          <mxGeometry relative="1" as="geometry" />
        </mxCell>
        <mxCell id="L5Ty71JDmMKIE8O5UFMq-339" style="edgeStyle=orthogonalEdgeStyle;rounded=0;orthogonalLoop=1;jettySize=auto;html=1;entryX=0.5;entryY=1;entryDx=0;entryDy=0;exitX=0.5;exitY=0;exitDx=0;exitDy=0;curved=1;" edge="1" parent="WIyWlLk6GJQsqaUBKTNV-1" source="L5Ty71JDmMKIE8O5UFMq-344" target="L5Ty71JDmMKIE8O5UFMq-353">
          <mxGeometry relative="1" as="geometry" />
        </mxCell>
        <mxCell id="L5Ty71JDmMKIE8O5UFMq-340" style="edgeStyle=orthogonalEdgeStyle;rounded=0;orthogonalLoop=1;jettySize=auto;html=1;curved=1;exitX=1;exitY=0.5;exitDx=0;exitDy=0;" edge="1" parent="WIyWlLk6GJQsqaUBKTNV-1" source="L5Ty71JDmMKIE8O5UFMq-344" target="L5Ty71JDmMKIE8O5UFMq-354">
          <mxGeometry relative="1" as="geometry" />
        </mxCell>
        <mxCell id="L5Ty71JDmMKIE8O5UFMq-341" style="edgeStyle=orthogonalEdgeStyle;rounded=0;orthogonalLoop=1;jettySize=auto;html=1;entryX=0.5;entryY=1;entryDx=0;entryDy=0;curved=1;exitX=0.5;exitY=0;exitDx=0;exitDy=0;" edge="1" parent="WIyWlLk6GJQsqaUBKTNV-1" source="L5Ty71JDmMKIE8O5UFMq-344" target="L5Ty71JDmMKIE8O5UFMq-351">
          <mxGeometry relative="1" as="geometry">
            <Array as="points">
              <mxPoint x="819" y="2640" />
              <mxPoint x="819" y="2590" />
              <mxPoint x="798" y="2590" />
              <mxPoint x="798" y="2487" />
              <mxPoint x="744" y="2487" />
            </Array>
          </mxGeometry>
        </mxCell>
        <mxCell id="L5Ty71JDmMKIE8O5UFMq-342" style="edgeStyle=orthogonalEdgeStyle;rounded=0;orthogonalLoop=1;jettySize=auto;html=1;entryX=0.5;entryY=1;entryDx=0;entryDy=0;curved=1;" edge="1" parent="WIyWlLk6GJQsqaUBKTNV-1" source="L5Ty71JDmMKIE8O5UFMq-344" target="L5Ty71JDmMKIE8O5UFMq-352">
          <mxGeometry relative="1" as="geometry" />
        </mxCell>
        <mxCell id="L5Ty71JDmMKIE8O5UFMq-343" style="edgeStyle=orthogonalEdgeStyle;rounded=0;orthogonalLoop=1;jettySize=auto;html=1;entryX=0.5;entryY=1;entryDx=0;entryDy=0;curved=1;exitX=0.5;exitY=0;exitDx=0;exitDy=0;" edge="1" parent="WIyWlLk6GJQsqaUBKTNV-1" source="L5Ty71JDmMKIE8O5UFMq-344" target="L5Ty71JDmMKIE8O5UFMq-350">
          <mxGeometry relative="1" as="geometry" />
        </mxCell>
        <mxCell id="L5Ty71JDmMKIE8O5UFMq-344" value="Role" style="whiteSpace=wrap;html=1;align=center;fillColor=#d80073;fontColor=#ffffff;strokeColor=#A50040;" vertex="1" parent="WIyWlLk6GJQsqaUBKTNV-1">
          <mxGeometry x="781.5" y="2640" width="100" height="40" as="geometry" />
        </mxCell>
        <mxCell id="L5Ty71JDmMKIE8O5UFMq-345" value="Create Date" style="ellipse;whiteSpace=wrap;html=1;align=center;" vertex="1" parent="WIyWlLk6GJQsqaUBKTNV-1">
          <mxGeometry x="801" y="2480" width="100" height="40" as="geometry" />
        </mxCell>
        <mxCell id="L5Ty71JDmMKIE8O5UFMq-346" value="Has" style="shape=rhombus;perimeter=rhombusPerimeter;whiteSpace=wrap;html=1;align=center;direction=east;rotation=0;" vertex="1" parent="WIyWlLk6GJQsqaUBKTNV-1">
          <mxGeometry x="580" y="2636" width="137.85" height="60" as="geometry" />
        </mxCell>
        <mxCell id="L5Ty71JDmMKIE8O5UFMq-347" value="" style="endArrow=classic;html=1;rounded=0;exitX=0.5;exitY=0;exitDx=0;exitDy=0;entryX=0.5;entryY=1;entryDx=0;entryDy=0;curved=1;" edge="1" parent="WIyWlLk6GJQsqaUBKTNV-1" source="L5Ty71JDmMKIE8O5UFMq-327" target="L5Ty71JDmMKIE8O5UFMq-330">
          <mxGeometry width="50" height="50" relative="1" as="geometry">
            <mxPoint x="577" y="2731" as="sourcePoint" />
            <mxPoint x="627" y="2681" as="targetPoint" />
          </mxGeometry>
        </mxCell>
        <mxCell id="L5Ty71JDmMKIE8O5UFMq-348" value="" style="edgeStyle=entityRelationEdgeStyle;fontSize=12;html=1;endArrow=ERmandOne;rounded=0;exitX=0;exitY=0.5;exitDx=0;exitDy=0;" edge="1" parent="WIyWlLk6GJQsqaUBKTNV-1" source="L5Ty71JDmMKIE8O5UFMq-346" target="L5Ty71JDmMKIE8O5UFMq-327">
          <mxGeometry width="100" height="100" relative="1" as="geometry">
            <mxPoint x="552" y="2756" as="sourcePoint" />
            <mxPoint x="652" y="2656" as="targetPoint" />
          </mxGeometry>
        </mxCell>
        <mxCell id="L5Ty71JDmMKIE8O5UFMq-349" value="" style="edgeStyle=entityRelationEdgeStyle;fontSize=12;html=1;endArrow=ERzeroToMany;endFill=1;rounded=0;entryX=0;entryY=0.5;entryDx=0;entryDy=0;exitX=1;exitY=0.5;exitDx=0;exitDy=0;" edge="1" parent="WIyWlLk6GJQsqaUBKTNV-1" source="L5Ty71JDmMKIE8O5UFMq-346" target="L5Ty71JDmMKIE8O5UFMq-344">
          <mxGeometry width="100" height="100" relative="1" as="geometry">
            <mxPoint x="877.9999999999999" y="2662" as="sourcePoint" />
            <mxPoint x="1073" y="2558" as="targetPoint" />
          </mxGeometry>
        </mxCell>
        <mxCell id="L5Ty71JDmMKIE8O5UFMq-350" value="Role ID" style="ellipse;whiteSpace=wrap;html=1;align=center;fontStyle=4;" vertex="1" parent="WIyWlLk6GJQsqaUBKTNV-1">
          <mxGeometry x="667" y="2501" width="100" height="40" as="geometry" />
        </mxCell>
        <mxCell id="L5Ty71JDmMKIE8O5UFMq-351" value="Description" style="ellipse;whiteSpace=wrap;html=1;align=center;" vertex="1" parent="WIyWlLk6GJQsqaUBKTNV-1">
          <mxGeometry x="694" y="2430" width="100" height="40" as="geometry" />
        </mxCell>
        <mxCell id="L5Ty71JDmMKIE8O5UFMq-352" value="Name" style="ellipse;whiteSpace=wrap;html=1;align=center;" vertex="1" parent="WIyWlLk6GJQsqaUBKTNV-1">
          <mxGeometry x="864" y="2415" width="100" height="40" as="geometry" />
        </mxCell>
        <mxCell id="L5Ty71JDmMKIE8O5UFMq-353" value="Modified Date" style="ellipse;whiteSpace=wrap;html=1;align=center;" vertex="1" parent="WIyWlLk6GJQsqaUBKTNV-1">
          <mxGeometry x="929" y="2455" width="100" height="40" as="geometry" />
        </mxCell>
        <mxCell id="L5Ty71JDmMKIE8O5UFMq-354" value="Deleted" style="ellipse;whiteSpace=wrap;html=1;align=center;" vertex="1" parent="WIyWlLk6GJQsqaUBKTNV-1">
          <mxGeometry x="924" y="2580" width="100" height="40" as="geometry" />
        </mxCell>
        <mxCell id="L5Ty71JDmMKIE8O5UFMq-355" style="edgeStyle=orthogonalEdgeStyle;rounded=0;orthogonalLoop=1;jettySize=auto;html=1;entryX=1;entryY=0.5;entryDx=0;entryDy=0;curved=1;" edge="1" parent="WIyWlLk6GJQsqaUBKTNV-1" source="L5Ty71JDmMKIE8O5UFMq-361" target="L5Ty71JDmMKIE8O5UFMq-365">
          <mxGeometry relative="1" as="geometry" />
        </mxCell>
        <mxCell id="L5Ty71JDmMKIE8O5UFMq-356" style="edgeStyle=orthogonalEdgeStyle;rounded=0;orthogonalLoop=1;jettySize=auto;html=1;entryX=1;entryY=0.5;entryDx=0;entryDy=0;curved=1;" edge="1" parent="WIyWlLk6GJQsqaUBKTNV-1" source="L5Ty71JDmMKIE8O5UFMq-361" target="L5Ty71JDmMKIE8O5UFMq-366">
          <mxGeometry relative="1" as="geometry" />
        </mxCell>
        <mxCell id="L5Ty71JDmMKIE8O5UFMq-357" style="edgeStyle=orthogonalEdgeStyle;rounded=0;orthogonalLoop=1;jettySize=auto;html=1;entryX=1;entryY=0.5;entryDx=0;entryDy=0;curved=1;" edge="1" parent="WIyWlLk6GJQsqaUBKTNV-1" source="L5Ty71JDmMKIE8O5UFMq-361" target="L5Ty71JDmMKIE8O5UFMq-367">
          <mxGeometry relative="1" as="geometry" />
        </mxCell>
        <mxCell id="L5Ty71JDmMKIE8O5UFMq-358" style="edgeStyle=orthogonalEdgeStyle;rounded=0;orthogonalLoop=1;jettySize=auto;html=1;entryX=0;entryY=0.5;entryDx=0;entryDy=0;curved=1;" edge="1" parent="WIyWlLk6GJQsqaUBKTNV-1" source="L5Ty71JDmMKIE8O5UFMq-361" target="L5Ty71JDmMKIE8O5UFMq-368">
          <mxGeometry relative="1" as="geometry" />
        </mxCell>
        <mxCell id="L5Ty71JDmMKIE8O5UFMq-359" style="edgeStyle=orthogonalEdgeStyle;rounded=0;orthogonalLoop=1;jettySize=auto;html=1;entryX=0;entryY=0.5;entryDx=0;entryDy=0;curved=1;" edge="1" parent="WIyWlLk6GJQsqaUBKTNV-1" source="L5Ty71JDmMKIE8O5UFMq-361" target="L5Ty71JDmMKIE8O5UFMq-369">
          <mxGeometry relative="1" as="geometry" />
        </mxCell>
        <mxCell id="L5Ty71JDmMKIE8O5UFMq-360" style="edgeStyle=orthogonalEdgeStyle;rounded=0;orthogonalLoop=1;jettySize=auto;html=1;curved=1;entryX=0;entryY=0.5;entryDx=0;entryDy=0;" edge="1" parent="WIyWlLk6GJQsqaUBKTNV-1" source="L5Ty71JDmMKIE8O5UFMq-361" target="L5Ty71JDmMKIE8O5UFMq-370">
          <mxGeometry relative="1" as="geometry" />
        </mxCell>
        <mxCell id="L5Ty71JDmMKIE8O5UFMq-361" value="Permission" style="whiteSpace=wrap;html=1;align=center;fillColor=#6a00ff;fontColor=#ffffff;strokeColor=#3700CC;" vertex="1" parent="WIyWlLk6GJQsqaUBKTNV-1">
          <mxGeometry x="781.5" y="2955" width="100" height="40" as="geometry" />
        </mxCell>
        <mxCell id="L5Ty71JDmMKIE8O5UFMq-362" value="Has" style="shape=rhombus;perimeter=rhombusPerimeter;whiteSpace=wrap;html=1;align=center;rotation=90;" vertex="1" parent="WIyWlLk6GJQsqaUBKTNV-1">
          <mxGeometry x="771.5" y="2759" width="120" height="60" as="geometry" />
        </mxCell>
        <mxCell id="L5Ty71JDmMKIE8O5UFMq-363" value="" style="fontSize=12;html=1;endArrow=ERzeroToMany;endFill=1;rounded=0;exitX=1;exitY=0.5;exitDx=0;exitDy=0;entryX=0.5;entryY=0;entryDx=0;entryDy=0;" edge="1" parent="WIyWlLk6GJQsqaUBKTNV-1" source="L5Ty71JDmMKIE8O5UFMq-362" target="L5Ty71JDmMKIE8O5UFMq-361">
          <mxGeometry width="100" height="100" relative="1" as="geometry">
            <mxPoint x="825.5" y="2873" as="sourcePoint" />
            <mxPoint x="925.5" y="2973" as="targetPoint" />
          </mxGeometry>
        </mxCell>
        <mxCell id="L5Ty71JDmMKIE8O5UFMq-364" value="" style="fontSize=12;html=1;endArrow=ERoneToMany;rounded=0;exitX=0;exitY=0.5;exitDx=0;exitDy=0;" edge="1" parent="WIyWlLk6GJQsqaUBKTNV-1" source="L5Ty71JDmMKIE8O5UFMq-362" target="L5Ty71JDmMKIE8O5UFMq-344">
          <mxGeometry width="100" height="100" relative="1" as="geometry">
            <mxPoint x="552" y="2756" as="sourcePoint" />
            <mxPoint x="652" y="2656" as="targetPoint" />
          </mxGeometry>
        </mxCell>
        <mxCell id="L5Ty71JDmMKIE8O5UFMq-365" value="Permission ID" style="ellipse;whiteSpace=wrap;html=1;align=center;fontStyle=4;" vertex="1" parent="WIyWlLk6GJQsqaUBKTNV-1">
          <mxGeometry x="647" y="2755" width="100" height="40" as="geometry" />
        </mxCell>
        <mxCell id="L5Ty71JDmMKIE8O5UFMq-366" value="Name" style="ellipse;whiteSpace=wrap;html=1;align=center;" vertex="1" parent="WIyWlLk6GJQsqaUBKTNV-1">
          <mxGeometry x="530" y="2779" width="100" height="40" as="geometry" />
        </mxCell>
        <mxCell id="L5Ty71JDmMKIE8O5UFMq-367" value="Description" style="ellipse;whiteSpace=wrap;html=1;align=center;" vertex="1" parent="WIyWlLk6GJQsqaUBKTNV-1">
          <mxGeometry x="590.5" y="2822" width="100" height="40" as="geometry" />
        </mxCell>
        <mxCell id="L5Ty71JDmMKIE8O5UFMq-368" value="Create Date" style="ellipse;whiteSpace=wrap;html=1;align=center;" vertex="1" parent="WIyWlLk6GJQsqaUBKTNV-1">
          <mxGeometry x="928" y="2816" width="100" height="40" as="geometry" />
        </mxCell>
        <mxCell id="L5Ty71JDmMKIE8O5UFMq-369" value="Modified Date" style="ellipse;whiteSpace=wrap;html=1;align=center;" vertex="1" parent="WIyWlLk6GJQsqaUBKTNV-1">
          <mxGeometry x="939" y="2886" width="100" height="40" as="geometry" />
        </mxCell>
        <mxCell id="L5Ty71JDmMKIE8O5UFMq-370" value="Status" style="ellipse;whiteSpace=wrap;html=1;align=center;" vertex="1" parent="WIyWlLk6GJQsqaUBKTNV-1">
          <mxGeometry x="932" y="2975" width="100" height="40" as="geometry" />
        </mxCell>
        <mxCell id="L5Ty71JDmMKIE8O5UFMq-371" style="edgeStyle=orthogonalEdgeStyle;rounded=0;orthogonalLoop=1;jettySize=auto;html=1;entryX=0.5;entryY=1;entryDx=0;entryDy=0;curved=1;" edge="1" parent="WIyWlLk6GJQsqaUBKTNV-1" source="L5Ty71JDmMKIE8O5UFMq-377" target="L5Ty71JDmMKIE8O5UFMq-378">
          <mxGeometry relative="1" as="geometry" />
        </mxCell>
        <mxCell id="L5Ty71JDmMKIE8O5UFMq-372" style="edgeStyle=orthogonalEdgeStyle;rounded=0;orthogonalLoop=1;jettySize=auto;html=1;curved=1;exitX=0.5;exitY=0;exitDx=0;exitDy=0;" edge="1" parent="WIyWlLk6GJQsqaUBKTNV-1" source="L5Ty71JDmMKIE8O5UFMq-377" target="L5Ty71JDmMKIE8O5UFMq-379">
          <mxGeometry relative="1" as="geometry">
            <mxPoint x="630.5" y="2940" as="targetPoint" />
          </mxGeometry>
        </mxCell>
        <mxCell id="L5Ty71JDmMKIE8O5UFMq-373" style="edgeStyle=orthogonalEdgeStyle;rounded=0;orthogonalLoop=1;jettySize=auto;html=1;entryX=0.5;entryY=0;entryDx=0;entryDy=0;curved=1;exitX=0.5;exitY=1;exitDx=0;exitDy=0;" edge="1" parent="WIyWlLk6GJQsqaUBKTNV-1" source="L5Ty71JDmMKIE8O5UFMq-377" target="L5Ty71JDmMKIE8O5UFMq-380">
          <mxGeometry relative="1" as="geometry">
            <mxPoint x="614.5" y="3328" as="targetPoint" />
          </mxGeometry>
        </mxCell>
        <mxCell id="L5Ty71JDmMKIE8O5UFMq-374" style="edgeStyle=orthogonalEdgeStyle;rounded=0;orthogonalLoop=1;jettySize=auto;html=1;curved=1;entryX=0.5;entryY=0;entryDx=0;entryDy=0;" edge="1" parent="WIyWlLk6GJQsqaUBKTNV-1" source="L5Ty71JDmMKIE8O5UFMq-377" target="L5Ty71JDmMKIE8O5UFMq-381">
          <mxGeometry relative="1" as="geometry">
            <mxPoint x="491.5" y="3425" as="targetPoint" />
          </mxGeometry>
        </mxCell>
        <mxCell id="L5Ty71JDmMKIE8O5UFMq-375" style="edgeStyle=orthogonalEdgeStyle;rounded=0;orthogonalLoop=1;jettySize=auto;html=1;entryX=0.5;entryY=0;entryDx=0;entryDy=0;curved=1;" edge="1" parent="WIyWlLk6GJQsqaUBKTNV-1" source="L5Ty71JDmMKIE8O5UFMq-377" target="L5Ty71JDmMKIE8O5UFMq-382">
          <mxGeometry relative="1" as="geometry" />
        </mxCell>
        <mxCell id="L5Ty71JDmMKIE8O5UFMq-376" style="edgeStyle=orthogonalEdgeStyle;rounded=0;orthogonalLoop=1;jettySize=auto;html=1;entryX=0.5;entryY=0;entryDx=0;entryDy=0;curved=1;exitX=0.5;exitY=1;exitDx=0;exitDy=0;" edge="1" parent="WIyWlLk6GJQsqaUBKTNV-1" source="L5Ty71JDmMKIE8O5UFMq-377" target="L5Ty71JDmMKIE8O5UFMq-383">
          <mxGeometry relative="1" as="geometry">
            <mxPoint x="356.5" y="3320" as="targetPoint" />
          </mxGeometry>
        </mxCell>
        <mxCell id="L5Ty71JDmMKIE8O5UFMq-377" value="Action" style="whiteSpace=wrap;html=1;align=center;fillColor=#1ba1e2;fontColor=#ffffff;strokeColor=#006EAF;" vertex="1" parent="WIyWlLk6GJQsqaUBKTNV-1">
          <mxGeometry x="410.5" y="3241" width="100" height="40" as="geometry" />
        </mxCell>
        <mxCell id="L5Ty71JDmMKIE8O5UFMq-378" value="Action ID" style="ellipse;whiteSpace=wrap;html=1;align=center;fontStyle=4;" vertex="1" parent="WIyWlLk6GJQsqaUBKTNV-1">
          <mxGeometry x="213" y="3196" width="100" height="40" as="geometry" />
        </mxCell>
        <mxCell id="L5Ty71JDmMKIE8O5UFMq-379" value="Actiion Code" style="ellipse;whiteSpace=wrap;html=1;align=center;" vertex="1" parent="WIyWlLk6GJQsqaUBKTNV-1">
          <mxGeometry x="366" y="3140" width="100" height="40" as="geometry" />
        </mxCell>
        <mxCell id="L5Ty71JDmMKIE8O5UFMq-380" value="Description" style="ellipse;whiteSpace=wrap;html=1;align=center;" vertex="1" parent="WIyWlLk6GJQsqaUBKTNV-1">
          <mxGeometry x="485" y="3349" width="100" height="40" as="geometry" />
        </mxCell>
        <mxCell id="L5Ty71JDmMKIE8O5UFMq-381" value="Create Date" style="ellipse;whiteSpace=wrap;html=1;align=center;" vertex="1" parent="WIyWlLk6GJQsqaUBKTNV-1">
          <mxGeometry x="397" y="3411" width="100" height="40" as="geometry" />
        </mxCell>
        <mxCell id="L5Ty71JDmMKIE8O5UFMq-382" value="Modified Date" style="ellipse;whiteSpace=wrap;html=1;align=center;" vertex="1" parent="WIyWlLk6GJQsqaUBKTNV-1">
          <mxGeometry x="313" y="3360" width="100" height="40" as="geometry" />
        </mxCell>
        <mxCell id="L5Ty71JDmMKIE8O5UFMq-383" value="Deleted" style="ellipse;whiteSpace=wrap;html=1;align=center;" vertex="1" parent="WIyWlLk6GJQsqaUBKTNV-1">
          <mxGeometry x="280" y="3291" width="100" height="40" as="geometry" />
        </mxCell>
        <mxCell id="L5Ty71JDmMKIE8O5UFMq-384" value="Name" style="ellipse;whiteSpace=wrap;html=1;align=center;" vertex="1" parent="WIyWlLk6GJQsqaUBKTNV-1">
          <mxGeometry x="276" y="3107" width="100" height="40" as="geometry" />
        </mxCell>
        <mxCell id="L5Ty71JDmMKIE8O5UFMq-385" style="edgeStyle=orthogonalEdgeStyle;rounded=0;orthogonalLoop=1;jettySize=auto;html=1;entryX=0.43;entryY=1;entryDx=0;entryDy=0;entryPerimeter=0;curved=1;" edge="1" parent="WIyWlLk6GJQsqaUBKTNV-1" source="L5Ty71JDmMKIE8O5UFMq-377" target="L5Ty71JDmMKIE8O5UFMq-384">
          <mxGeometry relative="1" as="geometry" />
        </mxCell>
        <mxCell id="L5Ty71JDmMKIE8O5UFMq-386" value="Permit" style="shape=rhombus;perimeter=rhombusPerimeter;whiteSpace=wrap;html=1;align=center;rotation=-45;" vertex="1" parent="WIyWlLk6GJQsqaUBKTNV-1">
          <mxGeometry x="565" y="3107" width="120" height="60" as="geometry" />
        </mxCell>
        <mxCell id="L5Ty71JDmMKIE8O5UFMq-387" value="" style="fontSize=12;html=1;endArrow=ERzeroToMany;endFill=1;rounded=0;exitX=0;exitY=0.5;exitDx=0;exitDy=0;entryX=1;entryY=0;entryDx=0;entryDy=0;" edge="1" parent="WIyWlLk6GJQsqaUBKTNV-1" source="L5Ty71JDmMKIE8O5UFMq-386" target="L5Ty71JDmMKIE8O5UFMq-377">
          <mxGeometry width="100" height="100" relative="1" as="geometry">
            <mxPoint x="620.5" y="3205" as="sourcePoint" />
            <mxPoint x="776.5" y="3105" as="targetPoint" />
          </mxGeometry>
        </mxCell>
        <mxCell id="L5Ty71JDmMKIE8O5UFMq-388" value="" style="fontSize=12;html=1;endArrow=ERmandOne;rounded=0;exitX=1;exitY=0.5;exitDx=0;exitDy=0;entryX=0;entryY=1;entryDx=0;entryDy=0;" edge="1" parent="WIyWlLk6GJQsqaUBKTNV-1" source="L5Ty71JDmMKIE8O5UFMq-386" target="L5Ty71JDmMKIE8O5UFMq-361">
          <mxGeometry width="100" height="100" relative="1" as="geometry">
            <mxPoint x="726.5" y="3062" as="sourcePoint" />
            <mxPoint x="919.5" y="2896" as="targetPoint" />
          </mxGeometry>
        </mxCell>
        <mxCell id="L5Ty71JDmMKIE8O5UFMq-389" value="City" style="ellipse;whiteSpace=wrap;html=1;align=center;" vertex="1" parent="WIyWlLk6GJQsqaUBKTNV-1">
          <mxGeometry x="229" y="2784" width="100" height="40" as="geometry" />
        </mxCell>
        <mxCell id="L5Ty71JDmMKIE8O5UFMq-390" style="edgeStyle=orthogonalEdgeStyle;rounded=0;orthogonalLoop=1;jettySize=auto;html=1;entryX=1;entryY=0.5;entryDx=0;entryDy=0;curved=1;" edge="1" parent="WIyWlLk6GJQsqaUBKTNV-1" source="L5Ty71JDmMKIE8O5UFMq-393" target="L5Ty71JDmMKIE8O5UFMq-395">
          <mxGeometry relative="1" as="geometry" />
        </mxCell>
        <mxCell id="L5Ty71JDmMKIE8O5UFMq-391" style="edgeStyle=orthogonalEdgeStyle;rounded=0;orthogonalLoop=1;jettySize=auto;html=1;curved=1;" edge="1" parent="WIyWlLk6GJQsqaUBKTNV-1" source="L5Ty71JDmMKIE8O5UFMq-393" target="L5Ty71JDmMKIE8O5UFMq-394">
          <mxGeometry relative="1" as="geometry" />
        </mxCell>
        <mxCell id="L5Ty71JDmMKIE8O5UFMq-392" style="edgeStyle=orthogonalEdgeStyle;rounded=0;orthogonalLoop=1;jettySize=auto;html=1;entryX=0.5;entryY=0;entryDx=0;entryDy=0;curved=1;" edge="1" parent="WIyWlLk6GJQsqaUBKTNV-1" source="L5Ty71JDmMKIE8O5UFMq-393" target="L5Ty71JDmMKIE8O5UFMq-396">
          <mxGeometry relative="1" as="geometry" />
        </mxCell>
        <mxCell id="L5Ty71JDmMKIE8O5UFMq-393" value="Location" style="ellipse;shape=doubleEllipse;margin=3;whiteSpace=wrap;html=1;align=center;" vertex="1" parent="WIyWlLk6GJQsqaUBKTNV-1">
          <mxGeometry x="380" y="2742" width="100" height="40" as="geometry" />
        </mxCell>
        <mxCell id="L5Ty71JDmMKIE8O5UFMq-394" value="Ward" style="ellipse;whiteSpace=wrap;html=1;align=center;" vertex="1" parent="WIyWlLk6GJQsqaUBKTNV-1">
          <mxGeometry x="225" y="2911" width="100" height="40" as="geometry" />
        </mxCell>
        <mxCell id="L5Ty71JDmMKIE8O5UFMq-395" value="District" style="ellipse;whiteSpace=wrap;html=1;align=center;" vertex="1" parent="WIyWlLk6GJQsqaUBKTNV-1">
          <mxGeometry x="202" y="2853" width="100" height="40" as="geometry" />
        </mxCell>
        <mxCell id="L5Ty71JDmMKIE8O5UFMq-396" value="Address" style="ellipse;whiteSpace=wrap;html=1;align=center;" vertex="1" parent="WIyWlLk6GJQsqaUBKTNV-1">
          <mxGeometry x="344" y="2879" width="100" height="40" as="geometry" />
        </mxCell>
        <mxCell id="L5Ty71JDmMKIE8O5UFMq-397" style="edgeStyle=orthogonalEdgeStyle;rounded=0;orthogonalLoop=1;jettySize=auto;html=1;entryX=0.98;entryY=0.675;entryDx=0;entryDy=0;entryPerimeter=0;curved=1;" edge="1" parent="WIyWlLk6GJQsqaUBKTNV-1" source="L5Ty71JDmMKIE8O5UFMq-393" target="L5Ty71JDmMKIE8O5UFMq-389">
          <mxGeometry relative="1" as="geometry" />
        </mxCell>
        <mxCell id="L5Ty71JDmMKIE8O5UFMq-398" style="edgeStyle=orthogonalEdgeStyle;rounded=0;orthogonalLoop=1;jettySize=auto;html=1;curved=1;" edge="1" parent="WIyWlLk6GJQsqaUBKTNV-1" source="L5Ty71JDmMKIE8O5UFMq-404" target="L5Ty71JDmMKIE8O5UFMq-405">
          <mxGeometry relative="1" as="geometry" />
        </mxCell>
        <mxCell id="L5Ty71JDmMKIE8O5UFMq-399" style="edgeStyle=orthogonalEdgeStyle;rounded=0;orthogonalLoop=1;jettySize=auto;html=1;curved=1;exitX=1;exitY=0.5;exitDx=0;exitDy=0;" edge="1" parent="WIyWlLk6GJQsqaUBKTNV-1" source="L5Ty71JDmMKIE8O5UFMq-404" target="L5Ty71JDmMKIE8O5UFMq-406">
          <mxGeometry relative="1" as="geometry">
            <mxPoint x="1008" y="2935" as="targetPoint" />
          </mxGeometry>
        </mxCell>
        <mxCell id="L5Ty71JDmMKIE8O5UFMq-400" style="edgeStyle=orthogonalEdgeStyle;rounded=0;orthogonalLoop=1;jettySize=auto;html=1;curved=1;entryX=0.5;entryY=0;entryDx=0;entryDy=0;" edge="1" parent="WIyWlLk6GJQsqaUBKTNV-1" source="L5Ty71JDmMKIE8O5UFMq-404" target="L5Ty71JDmMKIE8O5UFMq-412">
          <mxGeometry relative="1" as="geometry">
            <mxPoint x="869" y="3420" as="targetPoint" />
          </mxGeometry>
        </mxCell>
        <mxCell id="L5Ty71JDmMKIE8O5UFMq-401" style="edgeStyle=orthogonalEdgeStyle;rounded=0;orthogonalLoop=1;jettySize=auto;html=1;entryX=0.5;entryY=0;entryDx=0;entryDy=0;curved=1;" edge="1" parent="WIyWlLk6GJQsqaUBKTNV-1" source="L5Ty71JDmMKIE8O5UFMq-404" target="L5Ty71JDmMKIE8O5UFMq-408">
          <mxGeometry relative="1" as="geometry" />
        </mxCell>
        <mxCell id="L5Ty71JDmMKIE8O5UFMq-402" style="edgeStyle=orthogonalEdgeStyle;rounded=0;orthogonalLoop=1;jettySize=auto;html=1;entryX=0.5;entryY=0;entryDx=0;entryDy=0;curved=1;exitX=0.5;exitY=1;exitDx=0;exitDy=0;" edge="1" parent="WIyWlLk6GJQsqaUBKTNV-1" source="L5Ty71JDmMKIE8O5UFMq-404" target="L5Ty71JDmMKIE8O5UFMq-409">
          <mxGeometry relative="1" as="geometry">
            <mxPoint x="734" y="3315" as="targetPoint" />
          </mxGeometry>
        </mxCell>
        <mxCell id="L5Ty71JDmMKIE8O5UFMq-403" style="edgeStyle=orthogonalEdgeStyle;rounded=0;orthogonalLoop=1;jettySize=auto;html=1;entryX=0;entryY=0.5;entryDx=0;entryDy=0;curved=1;" edge="1" parent="WIyWlLk6GJQsqaUBKTNV-1" source="L5Ty71JDmMKIE8O5UFMq-404" target="L5Ty71JDmMKIE8O5UFMq-407">
          <mxGeometry relative="1" as="geometry" />
        </mxCell>
        <mxCell id="L5Ty71JDmMKIE8O5UFMq-404" value="Resource" style="whiteSpace=wrap;html=1;align=center;fillColor=#1ba1e2;fontColor=#ffffff;strokeColor=#006EAF;" vertex="1" parent="WIyWlLk6GJQsqaUBKTNV-1">
          <mxGeometry x="781.5" y="3241" width="100" height="40" as="geometry" />
        </mxCell>
        <mxCell id="L5Ty71JDmMKIE8O5UFMq-405" value="Resource ID" style="ellipse;whiteSpace=wrap;html=1;align=center;fontStyle=4;" vertex="1" parent="WIyWlLk6GJQsqaUBKTNV-1">
          <mxGeometry x="961" y="3256" width="100" height="40" as="geometry" />
        </mxCell>
        <mxCell id="L5Ty71JDmMKIE8O5UFMq-406" value="Resource Path" style="ellipse;whiteSpace=wrap;html=1;align=center;" vertex="1" parent="WIyWlLk6GJQsqaUBKTNV-1">
          <mxGeometry x="882.5" y="3110" width="100" height="40" as="geometry" />
        </mxCell>
        <mxCell id="L5Ty71JDmMKIE8O5UFMq-407" value="Description" style="ellipse;whiteSpace=wrap;html=1;align=center;" vertex="1" parent="WIyWlLk6GJQsqaUBKTNV-1">
          <mxGeometry x="958" y="3337" width="100" height="40" as="geometry" />
        </mxCell>
        <mxCell id="L5Ty71JDmMKIE8O5UFMq-408" value="Modified Date" style="ellipse;whiteSpace=wrap;html=1;align=center;" vertex="1" parent="WIyWlLk6GJQsqaUBKTNV-1">
          <mxGeometry x="856" y="3381" width="100" height="40" as="geometry" />
        </mxCell>
        <mxCell id="L5Ty71JDmMKIE8O5UFMq-409" value="Status" style="ellipse;whiteSpace=wrap;html=1;align=center;" vertex="1" parent="WIyWlLk6GJQsqaUBKTNV-1">
          <mxGeometry x="736" y="3369" width="100" height="40" as="geometry" />
        </mxCell>
        <mxCell id="L5Ty71JDmMKIE8O5UFMq-410" value="Name" style="ellipse;whiteSpace=wrap;html=1;align=center;" vertex="1" parent="WIyWlLk6GJQsqaUBKTNV-1">
          <mxGeometry x="950" y="3153" width="100" height="40" as="geometry" />
        </mxCell>
        <mxCell id="L5Ty71JDmMKIE8O5UFMq-411" style="edgeStyle=orthogonalEdgeStyle;rounded=0;orthogonalLoop=1;jettySize=auto;html=1;entryX=0.43;entryY=1;entryDx=0;entryDy=0;entryPerimeter=0;curved=1;" edge="1" parent="WIyWlLk6GJQsqaUBKTNV-1" source="L5Ty71JDmMKIE8O5UFMq-404" target="L5Ty71JDmMKIE8O5UFMq-410">
          <mxGeometry relative="1" as="geometry" />
        </mxCell>
        <mxCell id="L5Ty71JDmMKIE8O5UFMq-412" value="Create Date" style="ellipse;whiteSpace=wrap;html=1;align=center;" vertex="1" parent="WIyWlLk6GJQsqaUBKTNV-1">
          <mxGeometry x="789" y="3444" width="100" height="40" as="geometry" />
        </mxCell>
        <mxCell id="L5Ty71JDmMKIE8O5UFMq-413" value="Permit" style="shape=rhombus;perimeter=rhombusPerimeter;whiteSpace=wrap;html=1;align=center;" vertex="1" parent="WIyWlLk6GJQsqaUBKTNV-1">
          <mxGeometry x="598" y="3231" width="120" height="60" as="geometry" />
        </mxCell>
        <mxCell id="L5Ty71JDmMKIE8O5UFMq-414" value="" style="fontSize=12;html=1;endArrow=ERzeroToMany;endFill=1;rounded=0;exitX=1;exitY=0.5;exitDx=0;exitDy=0;entryX=0;entryY=0.5;entryDx=0;entryDy=0;" edge="1" parent="WIyWlLk6GJQsqaUBKTNV-1" source="L5Ty71JDmMKIE8O5UFMq-413" target="L5Ty71JDmMKIE8O5UFMq-404">
          <mxGeometry width="100" height="100" relative="1" as="geometry">
            <mxPoint x="758" y="3332" as="sourcePoint" />
            <mxPoint x="858" y="3232" as="targetPoint" />
          </mxGeometry>
        </mxCell>
        <mxCell id="L5Ty71JDmMKIE8O5UFMq-415" value="" style="fontSize=12;html=1;endArrow=ERzeroToMany;endFill=1;rounded=0;exitX=0;exitY=0.5;exitDx=0;exitDy=0;entryX=1;entryY=0.5;entryDx=0;entryDy=0;" edge="1" parent="WIyWlLk6GJQsqaUBKTNV-1" source="L5Ty71JDmMKIE8O5UFMq-413" target="L5Ty71JDmMKIE8O5UFMq-377">
          <mxGeometry width="100" height="100" relative="1" as="geometry">
            <mxPoint x="604" y="3315" as="sourcePoint" />
            <mxPoint x="716" y="3319" as="targetPoint" />
          </mxGeometry>
        </mxCell>
        <mxCell id="L5Ty71JDmMKIE8O5UFMq-416" value="Permit" style="shape=rhombus;perimeter=rhombusPerimeter;whiteSpace=wrap;html=1;align=center;rotation=90;" vertex="1" parent="WIyWlLk6GJQsqaUBKTNV-1">
          <mxGeometry x="771.5" y="3080" width="120" height="60" as="geometry" />
        </mxCell>
        <mxCell id="L5Ty71JDmMKIE8O5UFMq-417" value="" style="fontSize=12;html=1;endArrow=ERzeroToMany;endFill=1;rounded=0;exitX=1;exitY=0.5;exitDx=0;exitDy=0;entryX=0.5;entryY=0;entryDx=0;entryDy=0;" edge="1" parent="WIyWlLk6GJQsqaUBKTNV-1" source="L5Ty71JDmMKIE8O5UFMq-416" target="L5Ty71JDmMKIE8O5UFMq-404">
          <mxGeometry width="100" height="100" relative="1" as="geometry">
            <mxPoint x="616" y="3344" as="sourcePoint" />
            <mxPoint x="716" y="3244" as="targetPoint" />
          </mxGeometry>
        </mxCell>
        <mxCell id="L5Ty71JDmMKIE8O5UFMq-418" value="" style="fontSize=12;html=1;endArrow=ERone;endFill=1;rounded=0;exitX=0;exitY=0.5;exitDx=0;exitDy=0;entryX=0.5;entryY=1;entryDx=0;entryDy=0;" edge="1" parent="WIyWlLk6GJQsqaUBKTNV-1" source="L5Ty71JDmMKIE8O5UFMq-416" target="L5Ty71JDmMKIE8O5UFMq-361">
          <mxGeometry width="100" height="100" relative="1" as="geometry">
            <mxPoint x="817" y="3106" as="sourcePoint" />
            <mxPoint x="917" y="3006" as="targetPoint" />
          </mxGeometry>
        </mxCell>
      </root>
    </mxGraphModel>
  </diagram>
</mxfile>
